<svg width="161" height="160" viewBox="0 0 161 160" fill="none" xmlns="http://www.w3.org/2000/svg">
<path d="M30.5915 72.5897C30.5915 72.5897 52.7463 71.7025 57.534 35.2847C61.7856 2.94224 99.1444 17.6634 109.943 30.5558C123.933 47.257 116.475 75.9864 134.572 79.6158C152.669 83.2451 140.851 123.597 113.382 119.735C79.21 114.93 87.4776 134.898 77.2195 143.35C69.8575 149.416 39.6705 143.576 38.6644 121.557C37.8178 103.028 30.002 103.087 24.462 100.986C16.4722 97.9561 11.4377 76.0113 30.5915 72.5897Z" fill="#E7F8F3"/>
<path d="M105.903 113.034L84.1367 91.5254L79.8267 95.8872L101.593 117.395L105.903 113.034Z" fill="#c49073"/>
<path d="M114.218 118.812L97.284 102.079C97.1897 101.986 97.0378 101.987 96.9446 102.081L90.5351 108.567C90.4419 108.662 90.4428 108.814 90.5371 108.907L107.471 125.64C107.566 125.733 107.718 125.732 107.811 125.638L114.22 119.152C114.314 119.057 114.313 118.905 114.218 118.812Z" fill="#02142d"/>
<path d="M64.8445 102.343C79.8191 102.343 91.9585 90.2039 91.9585 75.2292C91.9585 60.2546 79.8191 48.1152 64.8445 48.1152C49.8698 48.1152 37.7305 60.2546 37.7305 75.2292C37.7305 90.2039 49.8698 102.343 64.8445 102.343Z" fill="#02142d"/>
<path d="M64.8461 97.9187C77.3773 97.9187 87.5359 87.7602 87.5359 75.2289C87.5359 62.6976 77.3773 52.5391 64.8461 52.5391C52.3148 52.5391 42.1562 62.6976 42.1562 75.2289C42.1562 87.7602 52.3148 97.9187 64.8461 97.9187Z" fill="#f9f2ef"/>
<path d="M110.685 50.7177C104.325 48.6562 97.4517 52.1428 95.3818 58.529C93.3203 64.889 96.8069 71.7622 103.193 73.832C109.579 75.9019 116.435 72.3811 118.497 66.0208C120.558 59.6604 117.045 52.7792 110.685 50.7177ZM108.766 56.6385C109.478 56.8693 110.105 57.3063 110.568 57.8941C111.031 58.4819 111.31 59.194 111.367 59.9401C111.425 60.6862 111.26 61.4327 110.893 62.0849C110.526 62.7371 109.974 63.2656 109.306 63.6034C108.639 63.9413 107.885 64.0731 107.143 63.9824C106.4 63.8916 105.701 63.5822 105.134 63.0936C104.567 62.6049 104.158 61.9589 103.959 61.2375C103.76 60.5161 103.78 59.7519 104.016 59.0416C104.652 57.0767 106.801 56.0016 108.766 56.6385ZM103.964 71.4534C101.851 70.772 100.041 69.3772 98.843 67.5079C101.084 66.2344 103.428 65.8796 105.548 66.5668C107.668 67.254 109.392 68.8984 110.426 71.2621C108.359 72.0735 106.075 72.1411 103.964 71.4534Z" fill="#208C84"/>
<path d="M57.7481 108.674C56.6434 109.237 55.7307 110.116 55.1255 111.199C54.5202 112.281 54.2496 113.519 54.3478 114.756C54.446 115.992 54.9087 117.171 55.6772 118.145C56.4458 119.118 57.4858 119.842 58.6656 120.225C59.8455 120.607 61.1123 120.631 62.3058 120.293C63.4993 119.956 64.5658 119.272 65.3707 118.328C66.1755 117.385 66.6824 116.223 66.8273 114.992C66.9721 113.76 66.7485 112.513 66.1846 111.408C65.4271 109.928 64.1135 108.809 62.5318 108.296C60.9502 107.783 59.2298 107.919 57.7481 108.674ZM59.2088 111.535C59.5528 111.359 59.9413 111.29 60.3249 111.335C60.7086 111.381 61.07 111.539 61.3635 111.79C61.657 112.042 61.8693 112.374 61.9734 112.746C62.0775 113.118 62.0688 113.513 61.9483 113.88C61.8278 114.247 61.6011 114.57 61.2968 114.808C60.9925 115.046 60.6244 115.188 60.2391 115.217C59.8539 115.245 59.4688 115.158 59.1329 114.968C58.7969 114.777 58.5251 114.491 58.3521 114.146C58.1227 113.685 58.0839 113.153 58.2443 112.664C58.4047 112.175 58.7512 111.77 59.2088 111.535V111.535ZM62.8634 118.695C61.8435 119.218 60.6737 119.369 59.5542 119.124C59.9074 117.841 60.6333 116.856 61.6582 116.333C62.6831 115.81 63.9123 115.781 65.1524 116.267C64.6941 117.317 63.8849 118.175 62.8634 118.695V118.695Z" fill="#208C84"/>
</svg>
