<svg width="161" height="160" viewBox="0 0 161 160" fill="none" xmlns="http://www.w3.org/2000/svg">
<path d="M24.2147 121.371C28.5667 131.99 35.6627 134.201 40.6518 131.99C50.3004 127.715 75.3642 122.939 101.106 134.166C135.199 149.037 142.452 126.601 131.572 103.907C120.691 81.2132 117.003 58.2634 129.546 45.6193C142.09 32.9752 125.675 13.1953 96.5253 33.7848C77.6874 47.0905 63.8625 44.1277 56.4386 40.3663C49.4418 36.8212 41.6605 33.1151 34.3702 36.0088C25.5242 39.5203 22.0386 47.1332 35.4974 64.1407C54.5696 88.2416 14.4591 97.5661 24.2147 121.371Z" fill="#E7F8F3"/>
<path d="M41.9375 69.6367H109.668V121.725C109.668 121.832 109.626 121.933 109.551 122.008C109.476 122.083 109.374 122.125 109.268 122.125H42.3375C42.2314 122.125 42.1297 122.083 42.0547 122.008C41.9796 121.933 41.9375 121.832 41.9375 121.725V69.6367Z" fill="#c49073"/>
<path d="M92.6765 49.2246H61.1833L41.9375 69.6368H109.668L92.6765 49.2246Z" fill="#02142d"/>
<path d="M48.351 41.0605L61.1815 49.2255L41.9357 69.6377L27.3555 58.5568L48.351 41.0605Z" fill="#208C84"/>
<path d="M105.506 41.0605L92.6758 49.2255L109.667 69.6377L126.502 58.5568L105.506 41.0605Z" fill="#208C84"/>
<path d="M69.4578 41.4788C69.8199 41.3071 70.1016 41.0021 70.2441 40.6276C70.3865 40.2531 70.3787 39.838 70.2223 39.4691L64.4504 25.8588C64.3686 25.6661 64.2487 25.4918 64.0979 25.3465C63.9471 25.2013 63.7684 25.088 63.5727 25.0136C63.377 24.9391 63.1682 24.905 62.959 24.9133C62.7498 24.9216 62.5444 24.9722 62.3552 25.0619L61.2432 25.5892C61.054 25.6789 60.8849 25.8059 60.746 25.9627C60.6072 26.1194 60.5014 26.3026 60.4352 26.5013C60.369 26.6999 60.3436 26.9099 60.3606 27.1186C60.3776 27.3273 60.4366 27.5304 60.5341 27.7157L67.418 40.7986C67.6046 41.1532 67.921 41.422 68.3012 41.5488C68.6813 41.6755 69.0957 41.6504 69.4578 41.4788Z" fill="#02142d"/>
<path d="M76.6963 40.1588C76.9584 40.1402 77.2031 40.021 77.3793 39.8261C77.5555 39.6313 77.6496 39.3759 77.642 39.1133L77.3569 29.424C77.3528 29.2868 77.3211 29.1518 77.2635 29.0271C77.206 28.9025 77.1238 28.7907 77.022 28.6986C76.9201 28.6065 76.8007 28.536 76.6709 28.4912C76.5411 28.4464 76.4036 28.4284 76.2667 28.4381L75.4616 28.4955C75.3247 28.5052 75.1912 28.5425 75.0691 28.6052C74.9469 28.6679 74.8388 28.7546 74.751 28.8601C74.6632 28.9656 74.5977 29.0878 74.5584 29.2193C74.519 29.3508 74.5067 29.4889 74.522 29.6253L75.6122 39.2573C75.6417 39.5184 75.7709 39.7581 75.973 39.9261C76.175 40.0941 76.4342 40.1775 76.6963 40.1588Z" fill="#02142d"/>
<path d="M82.2807 43.7406C83.0015 44.1574 84.0133 43.775 84.5745 42.8736L94.5397 26.8694C95.135 25.9133 94.9939 24.748 94.2295 24.306L93.1639 23.69C92.3994 23.2479 91.3191 23.707 90.7875 24.6999L81.8878 41.32C81.3866 42.2561 81.5599 43.3238 82.2807 43.7406Z" fill="#02142d"/>
</svg>
