<svg width="24" height="24" viewBox="0 0 24 24" fill="none" xmlns="http://www.w3.org/2000/svg">
<path d="M16.4631 8.66804L16.4679 8.66846C18.3775 8.83158 19.6697 9.41984 20.4978 10.4203C21.3347 11.4314 21.7705 12.9504 21.7705 15.1303V15.2603C21.7705 17.6473 21.2561 19.2348 20.2536 20.2351C19.2508 21.2356 17.6579 21.7503 15.2605 21.7503H8.74047C6.34299 21.7503 4.75045 21.2356 3.74777 20.233C2.74509 19.2303 2.23047 17.6377 2.23047 15.2403V15.1103C2.23047 12.9448 2.65904 11.4344 3.48281 10.4252C4.29665 9.42818 5.56577 8.83668 7.44142 8.65863C7.5826 8.65008 7.71063 8.76374 7.72283 8.88882C7.73599 9.02372 7.6376 9.14848 7.49358 9.16247C5.86022 9.31346 4.62175 9.78442 3.81556 10.8054C3.02385 11.8081 2.73047 13.2424 2.73047 15.1203V15.2503C2.73047 17.3199 3.09129 18.8707 4.10567 19.8851C5.12004 20.8995 6.67083 21.2603 8.74047 21.2603H15.2605C17.3301 21.2603 18.8809 20.8995 19.8953 19.8851C20.9097 18.8707 21.2705 17.3199 21.2705 15.2503V15.1203C21.2705 13.232 20.972 11.7905 20.1651 10.787C19.345 9.76691 18.0864 9.30302 16.4266 9.16239C16.2795 9.14676 16.1863 9.02017 16.1981 8.89882C16.2129 8.74696 16.3335 8.65568 16.4631 8.66804Z" fill="white" stroke="white"/>
<path d="M12 15.7491C11.59 15.7491 11.25 15.4091 11.25 14.9991V3.61914C11.25 3.20914 11.59 2.86914 12 2.86914C12.41 2.86914 12.75 3.20914 12.75 3.61914V14.9991C12.75 15.4091 12.41 15.7491 12 15.7491Z" fill="white"/>
<path d="M15.3498 6.59945C15.1598 6.59945 14.9698 6.52945 14.8198 6.37945L11.9998 3.55945L9.17984 6.37945C8.88984 6.66945 8.40984 6.66945 8.11984 6.37945C7.82984 6.08945 7.82984 5.60945 8.11984 5.31945L11.4698 1.96945C11.7598 1.67945 12.2398 1.67945 12.5298 1.96945L15.8798 5.31945C16.1698 5.60945 16.1698 6.08945 15.8798 6.37945C15.7398 6.52945 15.5398 6.59945 15.3498 6.59945Z" fill="white"/>
</svg>
