<svg width="32" height="32" viewBox="0 0 32 32" fill="none" xmlns="http://www.w3.org/2000/svg">
<path opacity="0.4" d="M25.7872 19.3205L24.4539 17.1072C24.1739 16.6139 23.9206 15.6805 23.9206 15.1339V11.7605C23.9206 7.41385 20.3872 3.86719 16.0272 3.86719C11.6672 3.86719 8.13391 7.41385 8.13391 11.7605V15.1339C8.13391 15.6805 7.88057 16.6139 7.60057 17.0939L6.25391 19.3205C5.72057 20.2139 5.60057 21.2005 5.93391 22.1072C6.25391 23.0005 7.01391 23.6939 8.00057 24.0272C10.5872 24.9072 13.3072 25.3339 16.0272 25.3339C18.7472 25.3339 21.4672 24.9072 24.0539 24.0405C24.9872 23.7339 25.7072 23.0272 26.0539 22.1072C26.4006 21.1872 26.3072 20.1739 25.7872 19.3205Z" fill="#c49073"/>
<path d="M18.9997 4.42602C18.0797 4.06602 17.0797 3.86602 16.0264 3.86602C14.9864 3.86602 13.9864 4.05268 13.0664 4.42602C13.6397 3.34602 14.7731 2.66602 16.0264 2.66602C17.2931 2.66602 18.4131 3.34602 18.9997 4.42602Z" fill="#c49073"/>
<path d="M19.7736 26.6793C19.2136 28.226 17.7336 29.3327 16.0002 29.3327C14.9469 29.3327 13.9069 28.906 13.1736 28.146C12.7469 27.746 12.4269 27.2127 12.2402 26.666C12.4136 26.6927 12.5869 26.706 12.7736 26.7327C13.0802 26.7727 13.4002 26.8127 13.7202 26.8393C14.4802 26.906 15.2536 26.946 16.0269 26.946C16.7869 26.946 17.5469 26.906 18.2936 26.8393C18.5736 26.8127 18.8536 26.7993 19.1202 26.7593C19.3336 26.7327 19.5469 26.706 19.7736 26.6793Z" fill="#c49073"/>
</svg>
