<svg width="16" height="16" viewBox="0 0 16 16" fill="none" xmlns="http://www.w3.org/2000/svg">
<mask id="path-1-inside-1_868_67947" fill="white">
<path d="M7.66536 14.5007C3.8987 14.5007 0.832031 11.434 0.832031 7.66732C0.832031 3.90065 3.8987 0.833984 7.66536 0.833984C11.432 0.833984 14.4987 3.90065 14.4987 7.66732C14.4987 11.434 11.432 14.5007 7.66536 14.5007ZM7.66536 1.83398C4.44536 1.83398 1.83203 4.45398 1.83203 7.66732C1.83203 10.8807 4.44536 13.5007 7.66536 13.5007C10.8854 13.5007 13.4987 10.8807 13.4987 7.66732C13.4987 4.45398 10.8854 1.83398 7.66536 1.83398Z"/>
</mask>
<path d="M7.66536 14.5007C3.8987 14.5007 0.832031 11.434 0.832031 7.66732C0.832031 3.90065 3.8987 0.833984 7.66536 0.833984C11.432 0.833984 14.4987 3.90065 14.4987 7.66732C14.4987 11.434 11.432 14.5007 7.66536 14.5007ZM7.66536 1.83398C4.44536 1.83398 1.83203 4.45398 1.83203 7.66732C1.83203 10.8807 4.44536 13.5007 7.66536 13.5007C10.8854 13.5007 13.4987 10.8807 13.4987 7.66732C13.4987 4.45398 10.8854 1.83398 7.66536 1.83398Z" fill="#CCCCCC"/>
<path d="M7.66536 13.5007C4.45098 13.5007 1.83203 10.8817 1.83203 7.66732H-0.167969C-0.167969 11.9863 3.34641 15.5007 7.66536 15.5007V13.5007ZM1.83203 7.66732C1.83203 4.45294 4.45098 1.83398 7.66536 1.83398V-0.166016C3.34641 -0.166016 -0.167969 3.34837 -0.167969 7.66732H1.83203ZM7.66536 1.83398C10.8797 1.83398 13.4987 4.45294 13.4987 7.66732H15.4987C15.4987 3.34837 11.9843 -0.166016 7.66536 -0.166016V1.83398ZM13.4987 7.66732C13.4987 10.8817 10.8797 13.5007 7.66536 13.5007V15.5007C11.9843 15.5007 15.4987 11.9863 15.4987 7.66732H13.4987ZM7.66536 0.833984C3.89234 0.833984 0.832031 3.90244 0.832031 7.66732H2.83203C2.83203 5.00553 4.99839 2.83398 7.66536 2.83398V0.833984ZM0.832031 7.66732C0.832031 11.4322 3.89234 14.5007 7.66536 14.5007V12.5007C4.99839 12.5007 2.83203 10.3291 2.83203 7.66732H0.832031ZM7.66536 14.5007C11.4384 14.5007 14.4987 11.4322 14.4987 7.66732H12.4987C12.4987 10.3291 10.3323 12.5007 7.66536 12.5007V14.5007ZM14.4987 7.66732C14.4987 3.90244 11.4384 0.833984 7.66536 0.833984V2.83398C10.3323 2.83398 12.4987 5.00553 12.4987 7.66732H14.4987Z" fill="#CCCCCC" mask="url(#path-1-inside-1_868_67947)"/>
<mask id="path-3-inside-2_868_67947" fill="white">
<path d="M14.6676 15.1676C14.5409 15.1676 14.4143 15.1209 14.3143 15.0209L12.9809 13.6876C12.7876 13.4943 12.7876 13.1743 12.9809 12.9809C13.1743 12.7876 13.4943 12.7876 13.6876 12.9809L15.0209 14.3143C15.2143 14.5076 15.2143 14.8276 15.0209 15.0209C14.9209 15.1209 14.7943 15.1676 14.6676 15.1676Z"/>
</mask>
<path d="M14.6676 15.1676C14.5409 15.1676 14.4143 15.1209 14.3143 15.0209L12.9809 13.6876C12.7876 13.4943 12.7876 13.1743 12.9809 12.9809C13.1743 12.7876 13.4943 12.7876 13.6876 12.9809L15.0209 14.3143C15.2143 14.5076 15.2143 14.8276 15.0209 15.0209C14.9209 15.1209 14.7943 15.1676 14.6676 15.1676Z" fill="#CCCCCC"/>
<path d="M14.3143 15.0209L13.6072 15.728L14.3143 15.0209ZM12.9809 13.6876L13.688 12.9805L12.9809 13.6876ZM13.6876 12.9809L12.9805 13.688L13.6876 12.9809ZM15.0209 14.3143L15.728 13.6072L15.0209 14.3143ZM14.6676 14.1676C14.7918 14.1676 14.924 14.2164 15.0214 14.3138L13.6072 15.728C13.9046 16.0255 14.29 16.1676 14.6676 16.1676V14.1676ZM15.0214 14.3138L13.688 12.9805L12.2738 14.3947L13.6072 15.728L15.0214 14.3138ZM13.688 12.9805C13.8852 13.1777 13.8852 13.4909 13.688 13.688L12.2738 12.2738C11.69 12.8577 11.69 13.8109 12.2738 14.3947L13.688 12.9805ZM13.688 13.688C13.4909 13.8852 13.1777 13.8852 12.9805 13.688L14.3947 12.2738C13.8109 11.69 12.8577 11.69 12.2738 12.2738L13.688 13.688ZM12.9805 13.688L14.3138 15.0214L15.728 13.6072L14.3947 12.2738L12.9805 13.688ZM14.3138 15.0214C14.1166 14.8242 14.1166 14.511 14.3138 14.3138L15.728 15.728C16.3119 15.1442 16.3119 14.191 15.728 13.6072L14.3138 15.0214ZM14.3138 14.3138C14.4113 14.2164 14.5434 14.1676 14.6676 14.1676V16.1676C15.0452 16.1676 15.4306 16.0255 15.728 15.728L14.3138 14.3138Z" fill="#CCCCCC" mask="url(#path-3-inside-2_868_67947)"/>
</svg>
