<svg width="18" height="18" viewBox="0 0 18 18" fill="none" xmlns="http://www.w3.org/2000/svg">
<mask id="path-1-inside-1_4108_10345" fill="white">
<path d="M17.3552 6.07599L11.9994 5.29762L9.60523 0.443844C9.53984 0.31095 9.43226 0.20337 9.29937 0.137978C8.96608 -0.0265567 8.56107 0.110556 8.39442 0.443844L6.00023 5.29762L0.64442 6.07599C0.496761 6.09709 0.361758 6.1667 0.258397 6.27217C0.133438 6.4006 0.0645807 6.57339 0.0669539 6.75257C0.0693271 6.93175 0.142737 7.10265 0.271053 7.22773L4.14606 11.0057L3.23057 16.3404C3.2091 16.4645 3.22283 16.5921 3.27021 16.7088C3.31758 16.8255 3.39671 16.9266 3.49861 17.0006C3.60051 17.0746 3.72111 17.1186 3.84673 17.1276C3.97235 17.1365 4.09797 17.1101 4.20934 17.0513L8.99983 14.5327L13.7903 17.0513C13.9211 17.1209 14.073 17.1441 14.2185 17.1188C14.5856 17.0555 14.8324 16.7075 14.7691 16.3404L13.8536 11.0057L17.7286 7.22773C17.8341 7.12437 17.9037 6.98937 17.9248 6.84171C17.9817 6.47256 17.7244 6.13084 17.3552 6.07599Z"/>
</mask>
<path d="M17.3552 6.07599L11.9994 5.29762L9.60523 0.443844C9.53984 0.31095 9.43226 0.20337 9.29937 0.137978C8.96608 -0.0265567 8.56107 0.110556 8.39442 0.443844L6.00023 5.29762L0.64442 6.07599C0.496761 6.09709 0.361758 6.1667 0.258397 6.27217C0.133438 6.4006 0.0645807 6.57339 0.0669539 6.75257C0.0693271 6.93175 0.142737 7.10265 0.271053 7.22773L4.14606 11.0057L3.23057 16.3404C3.2091 16.4645 3.22283 16.5921 3.27021 16.7088C3.31758 16.8255 3.39671 16.9266 3.49861 17.0006C3.60051 17.0746 3.72111 17.1186 3.84673 17.1276C3.97235 17.1365 4.09797 17.1101 4.20934 17.0513L8.99983 14.5327L13.7903 17.0513C13.9211 17.1209 14.073 17.1441 14.2185 17.1188C14.5856 17.0555 14.8324 16.7075 14.7691 16.3404L13.8536 11.0057L17.7286 7.22773C17.8341 7.12437 17.9037 6.98937 17.9248 6.84171C17.9817 6.47256 17.7244 6.13084 17.3552 6.07599Z" fill="#F2F2F2"/>
<path d="M11.9994 5.29762L11.1923 5.69576L11.4016 6.12021L11.87 6.18828L11.9994 5.29762ZM9.60523 0.443844L8.79768 0.841209L8.79807 0.841989L9.60523 0.443844ZM9.29937 0.137978L8.90096 0.945013L8.902 0.945526L9.29937 0.137978ZM8.39442 0.443844L7.58941 0.0413373L7.58726 0.0456988L8.39442 0.443844ZM6.00023 5.29762L6.12968 6.18828L6.59803 6.12021L6.8074 5.69576L6.00023 5.29762ZM0.64442 6.07599L0.771703 6.96697L0.773863 6.96665L0.64442 6.07599ZM0.258397 6.27217L-0.384412 5.64221L-0.386684 5.64455L0.258397 6.27217ZM0.271053 7.22773L0.899343 6.58331L0.899285 6.58325L0.271053 7.22773ZM4.14606 11.0057L5.03311 11.1579L5.11314 10.6916L4.77434 10.3613L4.14606 11.0057ZM3.23057 16.3404L4.11741 16.4938L4.11762 16.4926L3.23057 16.3404ZM4.20934 17.0513L3.7905 16.2547L3.78911 16.2554L4.20934 17.0513ZM8.99983 14.5327L9.41866 13.736L8.99983 13.5158L8.58099 13.736L8.99983 14.5327ZM13.7903 17.0513L14.2132 16.2568L14.2092 16.2547L13.7903 17.0513ZM14.2185 17.1188L14.0656 16.2319L14.0643 16.2321L14.2185 17.1188ZM14.7691 16.3404L13.882 16.4926L13.8822 16.4933L14.7691 16.3404ZM13.8536 11.0057L13.2253 10.3613L12.8865 10.6916L12.9665 11.1579L13.8536 11.0057ZM17.7286 7.22773L18.3569 7.87216L18.3586 7.87054L17.7286 7.22773ZM17.9248 6.84171L17.0352 6.70447L17.0338 6.71443L17.9248 6.84171ZM17.4847 5.18533L12.1289 4.40695L11.87 6.18828L17.2258 6.96665L17.4847 5.18533ZM12.8066 4.89947L10.4124 0.0456987L8.79807 0.841989L11.1923 5.69576L12.8066 4.89947ZM10.4128 0.0464786C10.2597 -0.264665 10.0079 -0.516468 9.69673 -0.66957L8.902 0.945526C8.85664 0.923208 8.82 0.886566 8.79768 0.841209L10.4128 0.0464786ZM9.69777 -0.669056C8.91764 -1.05419 7.9762 -0.732207 7.58942 0.0413431L9.19942 0.846344C9.14594 0.953318 9.01452 1.00107 8.90096 0.945012L9.69777 -0.669056ZM7.58726 0.0456988L5.19307 4.89947L6.8074 5.69576L9.20159 0.841989L7.58726 0.0456988ZM5.87079 4.40695L0.514978 5.18533L0.773863 6.96665L6.12968 6.18828L5.87079 4.40695ZM0.517139 5.18502C0.169857 5.23463 -0.145251 5.39818 -0.384408 5.64222L0.901202 6.90212C0.868767 6.93521 0.823666 6.95954 0.771702 6.96696L0.517139 5.18502ZM-0.386684 5.64455C-0.677994 5.94396 -0.838518 6.34678 -0.832986 6.76449L0.966894 6.74065C0.96768 6.8 0.944871 6.85724 0.903477 6.89979L-0.386684 5.64455ZM-0.832986 6.76449C-0.827453 7.1822 -0.656316 7.58062 -0.357178 7.87222L0.899285 6.58325C0.94179 6.62468 0.966107 6.6813 0.966894 6.74065L-0.832986 6.76449ZM-0.357236 7.87216L3.51777 11.6501L4.77434 10.3613L0.899343 6.58331L-0.357236 7.87216ZM3.259 10.8535L2.34352 16.1882L4.11762 16.4926L5.03311 11.1579L3.259 10.8535ZM2.34372 16.187C2.29358 16.4768 2.32565 16.7749 2.4363 17.0474L4.10412 16.3703C4.12001 16.4094 4.12461 16.4522 4.11741 16.4938L2.34372 16.187ZM2.4363 17.0474C2.54694 17.3199 2.73173 17.556 2.96971 17.7288L4.02751 16.2724C4.06169 16.2972 4.08823 16.3311 4.10412 16.3703L2.4363 17.0474ZM2.96971 17.7288C3.20769 17.9017 3.48933 18.0044 3.78272 18.0253L3.91074 16.2298C3.95288 16.2328 3.99333 16.2476 4.02751 16.2724L2.96971 17.7288ZM3.78272 18.0253C4.0761 18.0462 4.36947 17.9845 4.62956 17.8472L3.78911 16.2554C3.82647 16.2357 3.8686 16.2268 3.91074 16.2298L3.78272 18.0253ZM4.62817 17.8479L9.41866 15.3293L8.58099 13.736L3.7905 16.2547L4.62817 17.8479ZM8.58099 15.3293L13.3715 17.8479L14.2092 16.2547L9.41866 13.736L8.58099 15.3293ZM13.3674 17.8458C13.6787 18.0115 14.0341 18.0644 14.3727 18.0055L14.0643 16.2321C14.1118 16.2238 14.1635 16.2304 14.2132 16.2568L13.3674 17.8458ZM14.3714 18.0057C15.2261 17.8584 15.8041 17.0466 15.656 16.1875L13.8822 16.4933C13.8606 16.3683 13.945 16.2527 14.0656 16.2319L14.3714 18.0057ZM15.6561 16.1882L14.7407 10.8535L12.9665 11.1579L13.882 16.4926L15.6561 16.1882ZM14.4819 11.6501L18.3569 7.87216L17.1003 6.58331L13.2253 10.3613L14.4819 11.6501ZM18.3586 7.87054C18.6026 7.63138 18.7661 7.31627 18.8158 6.96899L17.0338 6.71443C17.0412 6.66247 17.0656 6.61736 17.0987 6.58493L18.3586 7.87054ZM18.8143 6.97895C18.9489 6.10612 18.3397 5.31236 17.4875 5.18574L17.223 6.96624C17.1091 6.94932 17.0145 6.839 17.0353 6.70447L18.8143 6.97895Z" fill="#CCCCCC" fill-opacity="0.8" mask="url(#path-1-inside-1_4108_10345)"/>
</svg>
