<svg width="56" height="56" viewBox="0 0 56 56" fill="none" xmlns="http://www.w3.org/2000/svg">
<path d="M56.0303 35.7723L54.81 25.9C54.7732 23.8367 54.1252 21.8307 52.9482 20.1357C51.7711 18.4407 50.1178 17.1329 48.1973 16.3776L38.9667 12.5486C36.9969 11.7662 34.8494 11.5427 32.7607 11.903C30.6721 12.2632 28.7235 13.1932 27.1297 14.5903L18.5547 20.951C16.2208 23.0732 14.3912 25.6905 13.1997 28.6113C13.1997 28.6113 12.201 30.408 12.1613 30.5037C11.4452 32.4606 11.518 34.6194 12.3643 36.5237C12.7588 37.4526 13.3348 38.2934 14.0583 38.997L13.9813 39.1883C13.3736 40.6116 13.3562 42.2181 13.933 43.6542C14.5097 45.0904 15.6333 46.2386 17.0567 46.8463C18.48 47.454 20.0864 47.4714 21.5226 46.8947C22.9587 46.3179 24.107 45.1943 24.7147 43.771L35.9147 48.2627C35.428 49.7005 35.5211 51.2715 36.174 52.6418C36.8269 54.0122 37.9884 55.0741 39.4116 55.602C40.8349 56.1299 42.4078 56.0821 43.7965 55.469C45.1851 54.8558 46.28 53.7254 46.8487 52.318L46.8813 52.2363C48.3285 52.2924 49.7575 51.8993 50.9723 51.111C52.1872 50.3227 53.1283 49.1778 53.6667 47.8333L54.628 45.4067C55.8403 42.3485 56.3206 39.0492 56.0303 35.7723ZM30.0767 18.2C31.03 17.3393 32.2033 16.7597 33.4663 16.5258C34.7292 16.2918 36.0323 16.4126 37.2307 16.8746L46.459 20.7013C47.5772 21.1528 48.5312 21.9345 49.1936 22.9421C49.8561 23.9497 50.1955 25.1354 50.1667 26.341C50.1667 26.369 51.1443 34.2463 51.1443 34.2463L23.3987 23.156L30.0767 18.2ZM18.9723 42.427H18.949L18.9957 42.4457L18.9723 42.427ZM40.9733 51.2493H40.9523L40.992 51.2633L40.9733 51.2493ZM49.3313 46.116C49.1044 46.6867 48.6616 47.145 48.099 47.3914C47.5364 47.6377 46.8993 47.6523 46.326 47.432L17.815 35.9776C17.2721 35.7078 16.8542 35.2389 16.6483 34.6687C16.3164 33.9364 16.2495 33.1115 16.4593 32.3353C16.4593 32.3353 17.4417 30.569 17.479 30.4687C18.0231 29.1097 18.7415 27.8273 19.6163 26.6537L23.3963 28.1657L22.638 30.0323C22.4053 30.606 22.41 31.2486 22.6512 31.8188C22.8923 32.3889 23.35 32.84 23.9237 33.0727C24.4973 33.3053 25.1399 33.3006 25.7101 33.0595C26.2803 32.8184 26.7313 32.3606 26.964 31.787L27.7293 29.897L43.2413 36.0967L42.4713 37.9937C42.3561 38.2777 42.298 38.5817 42.3002 38.8882C42.3025 39.1947 42.3651 39.4978 42.4845 39.7801C42.6039 40.0624 42.7777 40.3185 42.996 40.5336C43.2144 40.7487 43.4729 40.9188 43.757 41.034C44.3307 41.2667 44.9733 41.2619 45.5434 41.0208C45.8258 40.9014 46.0818 40.7276 46.2969 40.5093C46.5121 40.2909 46.6821 40.0324 46.7973 39.7483L47.5743 37.8303L51.359 39.3423C51.2041 40.8237 50.8469 42.2769 50.2973 43.6613L49.3313 46.116ZM9.33333 25.6667C9.33333 26.2855 9.0875 26.879 8.64991 27.3166C8.21233 27.7542 7.61884 28 7 28H2.33333C1.88996 27.9998 1.45582 27.8733 1.08174 27.6353C0.707659 27.3974 0.409125 27.0577 0.221096 26.6562C0.0330665 26.2547 -0.0366744 25.8079 0.0200397 25.3682C0.0767538 24.9285 0.257575 24.514 0.54133 24.1733L4.25366 19.719C4.50055 19.4248 4.63589 19.053 4.63589 18.669C4.63589 18.2849 4.50055 17.9132 4.25366 17.619L0.54133 13.16C0.257575 12.8193 0.0767538 12.4048 0.0200397 11.9651C-0.0366744 11.5254 0.0330665 11.0786 0.221096 10.6771C0.409125 10.2756 0.707659 9.93594 1.08174 9.69795C1.45582 9.45996 1.88996 9.33348 2.33333 9.33331H7.7C8.13224 9.33026 8.54591 9.1572 8.85156 8.85155C9.15721 8.5459 9.33028 8.13223 9.33333 7.69998V2.33331C9.3335 1.88995 9.45998 1.45581 9.69796 1.08172C9.93595 0.707644 10.2756 0.40911 10.6771 0.22108C11.0786 0.0330512 11.5254 -0.0366896 11.9651 0.0200245C12.4049 0.0767386 12.8193 0.25756 13.16 0.541315L17.6143 4.25365C17.9085 4.50054 18.2803 4.63587 18.6643 4.63587C19.0484 4.63587 19.4202 4.50054 19.7143 4.25365L24.1733 0.541315C24.514 0.25756 24.9285 0.0767386 25.3682 0.0200245C25.8079 -0.0366896 26.2547 0.0330512 26.6562 0.22108C27.0577 0.40911 27.3974 0.707644 27.6354 1.08172C27.8734 1.45581 27.9998 1.88995 28 2.33331V6.99998C28.0011 7.59363 27.7758 8.16536 27.3701 8.59875C26.9644 9.03214 26.4087 9.29459 25.8163 9.33265C25.2239 9.37072 24.6392 9.18155 24.1814 8.80365C23.7235 8.42575 23.4269 7.88755 23.352 7.29865L22.7057 7.83765C21.5726 8.78419 20.1431 9.30273 18.6667 9.30273C17.1903 9.30273 15.7607 8.78419 14.6277 7.83765L14 7.31498V7.69998C13.9957 9.36952 13.3306 10.9694 12.15 12.15C10.9695 13.3305 9.36954 13.9957 7.7 14H7.315L7.83766 14.6276C8.78421 15.7607 9.30274 17.1902 9.30274 18.6666C9.30274 20.1431 8.78421 21.5726 7.83766 22.7057L7.29866 23.352C7.8612 23.4246 8.37803 23.6996 8.7525 24.1256C9.12698 24.5516 9.33346 25.0995 9.33333 25.6667Z" fill="#c49073"/>
</svg>
