<svg width="56" height="56" viewBox="0 0 56 56" fill="none" xmlns="http://www.w3.org/2000/svg">
<path d="M51.7306 31.3189L48.4533 28.0333L51.7635 24.7351C54.4943 22.008 55.9988 18.3807 56 14.5214C56.0013 10.662 54.4992 7.03382 51.7702 4.3048C46.1431 -1.3222 36.9841 -1.32526 31.3551 4.29628L28.0136 7.62599L24.6499 4.25595C21.9231 1.52627 18.2965 0.022468 14.4382 0.0214844C14.4367 0.0214844 14.436 0.0214844 14.4346 0.0214844C10.5778 0.0214844 6.95149 1.52365 4.22444 4.25114C-1.40355 9.87968 -1.40399 19.0387 4.22684 24.6715L7.56759 27.9983L4.25537 31.2986C1.51903 34.0212 0.00779005 37.6467 3.00223e-05 41.5069C-0.00773001 45.3671 1.48908 48.9984 4.21449 51.7322C7.0304 54.5565 10.735 55.9692 14.4413 55.9692C18.1279 55.9692 21.8162 54.5704 24.6287 51.7719L27.9776 48.4351L31.3061 51.7531C34.068 54.5113 37.7587 55.9795 41.5189 55.9795C43.299 55.9795 45.0951 55.6502 46.8147 54.973C47.9379 54.5306 48.49 53.2614 48.0475 52.1381C47.6051 51.0147 46.3357 50.4626 45.2126 50.9053C41.4796 52.3753 37.2336 51.4942 34.394 48.6583L31.0746 45.3494L45.3563 31.1192L48.6372 34.4084C51.3875 37.1586 52.3106 41.3009 50.9891 44.9611C50.5792 46.0967 51.1673 47.3496 52.3029 47.7596C52.5481 47.8481 52.7986 47.8901 53.0451 47.8901C53.94 47.8901 54.7798 47.3362 55.1013 46.4458C56.0199 43.9014 56.2064 41.1553 55.6404 38.5044C55.0588 35.7797 53.7061 33.2944 51.7306 31.3189ZM7.31512 21.5771C3.39171 17.6523 3.39204 11.2665 7.31599 7.34214C9.21742 5.4405 11.7454 4.39322 14.4346 4.39322H14.437C17.1271 4.39388 19.6556 5.44236 21.5561 7.34488L24.9165 10.7116L10.6645 24.9125L7.31512 21.5771ZM21.5441 48.6737C17.612 52.5864 11.2268 52.5736 7.31053 48.6453C5.41008 46.7393 4.36652 44.2072 4.37188 41.5156C4.37723 38.8241 5.43096 36.2961 7.34004 34.3967L10.6655 31.0833L20.2075 40.5853C20.6341 41.0101 21.1919 41.2222 21.7499 41.2222C22.3108 41.2222 22.8718 41.0076 23.2988 40.5787C24.1507 39.7232 24.1478 38.3392 23.2923 37.4874L13.7623 27.9974L34.4429 7.39144C36.4053 5.43165 38.9816 4.45203 41.5585 4.45203C44.1372 4.45203 46.7164 5.43351 48.6789 7.39614C50.5818 9.29899 51.6292 11.8289 51.6283 14.5198C51.6274 17.2108 50.5784 19.7401 48.676 21.6398L45.3658 24.938L35.8667 15.4148C35.0141 14.5601 33.63 14.5583 32.7753 15.4108C31.9206 16.2635 31.9189 17.6475 32.7714 18.5022L42.2689 28.0237L21.5441 48.6737ZM30.1658 22.5326C30.1658 23.7399 29.1871 24.7185 27.9799 24.7185C26.7726 24.7185 25.7939 23.7399 25.7939 22.5326C25.7939 21.3253 26.7726 20.3466 27.9799 20.3466C29.1871 20.3466 30.1658 21.3253 30.1658 22.5326ZM30.1658 33.5715C30.1658 34.7788 29.1871 35.7574 27.9799 35.7574C26.7726 35.7574 25.7939 34.7788 25.7939 33.5715C25.7939 32.3642 26.7726 31.3856 27.9799 31.3856C29.1871 31.3856 30.1658 32.3642 30.1658 33.5715ZM24.5917 28.1067C24.5917 29.314 23.613 30.2926 22.4058 30.2926C21.1985 30.2926 20.2198 29.314 20.2198 28.1067C20.2198 26.8994 21.1985 25.9208 22.4058 25.9208C23.613 25.9208 24.5917 26.8994 24.5917 28.1067ZM33.4447 25.9208C34.652 25.9208 35.6306 26.8994 35.6306 28.1067C35.6306 29.314 34.652 30.2926 33.4447 30.2926C32.2374 30.2926 31.2588 29.314 31.2588 28.1067C31.2588 26.8994 32.2374 25.9208 33.4447 25.9208Z" fill="#c49073"/>
</svg>
