<svg width="56" height="56" viewBox="0 0 56 56" fill="none" xmlns="http://www.w3.org/2000/svg">
<g clip-path="url(#clip0_5879_74806)">
<path d="M22.6157 24.2305C19.9436 24.2305 17.7695 26.4044 17.7695 29.0767C17.7695 31.7488 19.9435 33.9228 22.6157 33.9228C25.288 33.9228 27.4619 31.7489 27.4619 29.0767C27.4619 26.4045 25.288 24.2305 22.6157 24.2305ZM22.6157 30.692C21.725 30.692 21.0004 29.9674 21.0004 29.0767C21.0004 28.1859 21.725 27.4613 22.6157 27.4613C23.5065 27.4613 24.2311 28.1859 24.2311 29.0767C24.2311 29.9674 23.5065 30.692 22.6157 30.692Z" fill="#c49073"/>
<path d="M33.3843 24.2305C30.7121 24.2305 28.5381 26.4044 28.5381 29.0767C28.5381 31.7488 30.712 33.9228 33.3843 33.9228C36.0565 33.9228 38.2305 31.7489 38.2305 29.0767C38.2304 26.4045 36.0564 24.2305 33.3843 24.2305ZM33.3843 30.692C32.4935 30.692 31.7689 29.9674 31.7689 29.0767C31.7689 28.1859 32.4935 27.4613 33.3843 27.4613C34.275 27.4613 34.9996 28.1859 34.9996 29.0767C34.9996 29.9674 34.275 30.692 33.3843 30.692Z" fill="#c49073"/>
<path d="M49.5385 43.0769C48.3418 43.0769 47.2209 43.405 46.2587 43.9743L39.4801 37.1956V36.7679C44.1151 33.7526 46.8542 29.072 46.8542 24.0848C46.8542 20.73 45.6504 17.542 43.4161 14.8683L46.2587 12.0256C47.2209 12.595 48.3417 12.9231 49.5385 12.9231C53.1013 12.9231 56 10.0244 56 6.46155C56 2.89866 53.1013 0 49.5385 0C45.9756 0 43.0769 2.89866 43.0769 6.46155C43.0769 7.65811 43.405 8.77909 43.9743 9.74116L41.1168 12.5988C37.5838 9.6997 32.9322 8.10392 28 8.10392C23.0678 8.10392 18.4163 9.6997 14.8833 12.5988L12.0257 9.74127C12.595 8.77899 12.9231 7.65811 12.9231 6.46144C12.9231 2.89866 10.0244 0 6.46155 0C2.89866 0 0 2.89866 0 6.46155C0 10.0244 2.89866 12.9231 6.46155 12.9231C7.65811 12.9231 8.77909 12.595 9.74105 12.0257L12.5838 14.8684C10.3495 17.5421 9.14572 20.7302 9.14572 24.0849C9.14572 29.0722 11.8848 33.7526 16.5198 36.768V37.1957L9.74105 43.9744C8.77898 43.405 7.65811 43.0769 6.46155 43.0769C2.89866 43.0769 0 45.9756 0 49.5385C0 53.1013 2.89866 56 6.46155 56C10.0244 56 12.9231 53.1013 12.9231 49.5385C12.9231 48.3418 12.595 47.2209 12.0257 46.2587L16.5199 41.7645V46.2807C16.5199 47.1728 17.2432 47.8961 18.1353 47.8961H37.8649C38.757 47.8961 39.4802 47.1728 39.4802 46.2807V41.7646L43.9743 46.2588C43.405 47.2209 43.0769 48.3418 43.0769 49.5383C43.0769 53.1012 45.9756 55.9999 49.5385 55.9999C53.1013 56 56 53.1013 56 49.5385C56 45.9756 53.1013 43.0769 49.5385 43.0769ZM49.5385 3.23072C51.3198 3.23072 52.7692 4.68005 52.7692 6.46144C52.7692 8.24294 51.3198 9.69216 49.5385 9.69216C47.757 9.69216 46.3077 8.24283 46.3077 6.46144C46.3077 4.68005 47.7571 3.23072 49.5385 3.23072ZM6.46155 9.69227C4.68016 9.69227 3.23083 8.24294 3.23083 6.46155C3.23083 4.68016 4.68016 3.23083 6.46155 3.23083C8.24305 3.23083 9.69227 4.68016 9.69227 6.46155C9.69227 8.24294 8.24294 9.69227 6.46155 9.69227ZM6.46155 52.7693C4.68016 52.7693 3.23083 51.32 3.23083 49.5386C3.23083 47.7571 4.68016 46.3078 6.46155 46.3078C8.24305 46.3078 9.69227 47.7572 9.69227 49.5386C9.69227 51.32 8.24294 52.7693 6.46155 52.7693ZM37.0517 34.4706C36.555 34.76 36.2495 35.2916 36.2495 35.8665C36.2495 35.8668 36.2495 35.8665 36.2495 35.8668V44.6655H32.8462V40.9232C32.8462 40.031 32.1229 39.3078 31.2308 39.3078C30.3388 39.3078 29.6155 40.0311 29.6155 40.9232V44.6655H26.3848V40.9232C26.3848 40.031 25.6615 39.3078 24.7694 39.3078C23.8773 39.3078 23.154 40.0311 23.154 40.9232V44.6655H19.7507V35.8663C19.7507 35.2914 19.4452 34.7598 18.9486 34.4704C14.8335 32.0731 12.3769 28.1906 12.3769 24.0848C12.3769 21.0151 13.7132 18.1952 15.936 15.9923C15.9459 15.983 15.9563 15.9749 15.9658 15.9654C15.9719 15.9592 15.977 15.9526 15.9831 15.9463C18.8511 13.1306 23.1735 11.3346 28.0003 11.3346C32.8269 11.3346 37.1491 13.1304 40.0173 15.946C40.0234 15.9523 40.0285 15.9592 40.0349 15.9655C40.0446 15.9752 40.0552 15.9833 40.0652 15.9928C42.2877 18.1956 43.6238 21.0152 43.6238 24.0849C43.6233 28.1909 41.1666 32.0733 37.0517 34.4706ZM49.5385 52.7693C47.757 52.7693 46.3077 51.32 46.3077 49.5386C46.3077 47.7571 47.7571 46.3078 49.5385 46.3078C51.3198 46.3078 52.7692 47.7572 52.7692 49.5386C52.7693 51.32 51.32 52.7693 49.5385 52.7693Z" fill="#c49073"/>
</g>
<defs>
<clipPath id="clip0_5879_74806">
<rect width="56" height="56" fill="white"/>
</clipPath>
</defs>
</svg>
