<svg width="80" height="80" viewBox="0 0 80 80" fill="none" xmlns="http://www.w3.org/2000/svg">
<path d="M40.2272 14.4004C50.0731 14.4004 65.8269 32.1234 65.8269 32.1234H15.0859C15.0859 32.1234 30.3808 14.4004 40.2272 14.4004Z" fill="url(#paint0_linear_1999_64935)"/>
<rect x="33.6836" y="30.0156" width="13.3444" height="31.137" fill="#0F6B5F"/>
<rect x="16.4492" y="30.0156" width="7.78424" height="31.137" fill="url(#paint1_linear_1999_64935)"/>
<rect x="56.4805" y="30.0156" width="7.78424" height="31.137" fill="url(#paint2_linear_1999_64935)"/>
<rect x="12" y="61.1523" width="2.22407" height="56.7138" rx="1.11203" transform="rotate(-90 12 61.1523)" fill="#0B4C43"/>
<rect x="12" y="65.5996" width="2.22407" height="56.7138" rx="1.11203" transform="rotate(-90 12 65.5996)" fill="#17645E"/>
<rect x="12" y="32.2383" width="2.22407" height="56.7138" rx="1.11203" transform="rotate(-90 12 32.2383)" fill="#0B4C43"/>
<path d="M39.7228 18.8945H40.9318V32.2389H39.7228V18.8945ZM40.3363 30.4748C39.7649 30.4748 39.2145 30.4084 38.6852 30.2757C38.1619 30.143 37.6897 29.947 37.2687 29.6877C36.8536 29.4283 36.5228 29.1056 36.2762 28.7196C36.0296 28.3276 35.9062 27.8722 35.9062 27.3535C35.9062 27.3294 35.9062 27.3023 35.9062 27.2721C35.9062 27.2359 35.9062 27.2088 35.9062 27.1907H38.6852C38.6852 27.2088 38.6852 27.2299 38.6852 27.254C38.6852 27.2721 38.6852 27.2932 38.6852 27.3173C38.6852 27.6672 38.8386 27.9235 39.1454 28.0863C39.4581 28.2492 39.8822 28.3306 40.4175 28.3306C40.6882 28.3306 40.9499 28.3035 41.2025 28.2492C41.4612 28.1889 41.6717 28.0954 41.8341 27.9687C42.0025 27.836 42.0867 27.6702 42.0867 27.4711C42.0867 27.1515 41.9123 26.9253 41.5634 26.7926C41.2145 26.6599 40.6491 26.5272 39.8672 26.3945C39.4281 26.3222 38.983 26.2196 38.5318 26.0869C38.0867 25.9543 37.6747 25.7793 37.2957 25.5622C36.9168 25.3391 36.613 25.0586 36.3844 24.7208C36.1559 24.377 36.0416 23.9609 36.0416 23.4723C36.0416 22.821 36.2371 22.2721 36.6281 21.8258C37.019 21.3795 37.5423 21.0417 38.198 20.8125C38.8536 20.5833 39.5754 20.4687 40.3634 20.4687C41.1153 20.4687 41.816 20.5954 42.4657 20.8487C43.1213 21.096 43.6506 21.4548 44.0537 21.9253C44.4567 22.3897 44.6582 22.9506 44.6582 23.608C44.6582 23.6201 44.6582 23.6382 44.6582 23.6623C44.6582 23.6865 44.6582 23.7106 44.6582 23.7347H41.9063C41.9063 23.7106 41.9063 23.6895 41.9063 23.6714C41.9063 23.6533 41.9063 23.6382 41.9063 23.6261C41.9063 23.3849 41.8281 23.1889 41.6717 23.0381C41.5213 22.8873 41.3288 22.7757 41.0942 22.7033C40.8597 22.6249 40.613 22.5857 40.3544 22.5857C40.1318 22.5857 39.8972 22.6129 39.6506 22.6672C39.404 22.7154 39.1965 22.7998 39.0281 22.9205C38.8596 23.0351 38.7754 23.1979 38.7754 23.409C38.7754 23.6141 38.8657 23.783 39.0461 23.9156C39.2326 24.0423 39.4882 24.1479 39.813 24.2323C40.1378 24.3107 40.5108 24.3861 40.9318 24.4585C41.3409 24.5248 41.7679 24.6183 42.213 24.7389C42.6642 24.8535 43.0852 25.0194 43.4762 25.2365C43.8672 25.4476 44.186 25.7281 44.4326 26.0779C44.6792 26.4217 44.8025 26.859 44.8025 27.3897C44.8025 27.9386 44.6762 28.409 44.4236 28.8011C44.1709 29.1931 43.8281 29.5128 43.395 29.7601C42.9679 30.0013 42.4897 30.1822 41.9604 30.3029C41.4311 30.4175 40.8897 30.4748 40.3363 30.4748Z" fill="#f9f2ef"/>
<defs>
<linearGradient id="paint0_linear_1999_64935" x1="40.4564" y1="14.4004" x2="40.4564" y2="32.1234" gradientUnits="userSpaceOnUse">
<stop stop-color="#159383"/>
<stop offset="0.5" stop-color="#0F6B5F"/>
<stop offset="1" stop-color="#0B4C43"/>
</linearGradient>
<linearGradient id="paint1_linear_1999_64935" x1="20.3413" y1="30.0156" x2="20.3413" y2="61.1526" gradientUnits="userSpaceOnUse">
<stop stop-color="#208C84"/>
<stop offset="1" stop-color="#0F6B5F"/>
</linearGradient>
<linearGradient id="paint2_linear_1999_64935" x1="60.3726" y1="30.0156" x2="60.3726" y2="61.1526" gradientUnits="userSpaceOnUse">
<stop stop-color="#208C84"/>
<stop offset="1" stop-color="#0F6B5F"/>
</linearGradient>
</defs>
</svg>
