<svg width="80" height="80" viewBox="0 0 80 80" fill="none" xmlns="http://www.w3.org/2000/svg">
<rect x="30.5391" y="17.6895" width="34.0459" height="48.9701" rx="1.6" fill="#c49073"/>
<rect x="26.7109" y="13.8633" width="34.0459" height="48.9701" rx="1.6" fill="#c49073"/>
<path d="M43.4995 21.5244H52.9487C53.0803 21.5244 53.2119 21.5244 53.3435 21.5244C53.849 21.5547 54.1543 21.8377 54.153 22.2707C54.153 22.6656 53.8029 23.021 53.3633 23.0604C53.2488 23.0697 53.1329 23.0604 53.0184 23.0604H33.9161C33.7844 23.066 33.6525 23.0629 33.5212 23.0512C33.0829 22.996 32.8473 22.734 32.8289 22.2957C32.8118 21.8864 33.0803 21.5863 33.5081 21.531C33.6717 21.5158 33.8362 21.5119 34.0003 21.5192L43.4995 21.5244Z" fill="#f9f2ef"/>
<path d="M44.2341 43.5924C47.2176 43.5924 50.2045 43.5924 53.195 43.5924C53.6201 43.5924 53.9847 43.6556 54.1163 44.1373C54.1525 44.2427 54.164 44.3549 54.1499 44.4655C54.1358 44.576 54.0965 44.6818 54.0351 44.7747C53.9737 44.8677 53.8918 44.9453 53.7956 45.0016C53.6995 45.0579 53.5917 45.0914 53.4806 45.0995C53.3169 45.1126 53.1525 45.1166 52.9883 45.1113H35.5115C35.4128 45.1113 35.3154 45.1113 35.2167 45.1113C34.6362 45.0929 34.3532 44.8283 34.3677 44.3216C34.3809 43.8438 34.6573 43.5976 35.2233 43.5963C38.2269 43.5893 41.2305 43.588 44.2341 43.5924Z" fill="#f9f2ef"/>
<path d="M45.2655 25.8984H52.9483C53.1128 25.8984 53.2773 25.8984 53.4405 25.909C53.8802 25.9498 54.15 26.2288 54.1579 26.6355C54.1591 26.8264 54.0905 27.0112 53.9649 27.155C53.8393 27.2988 53.6654 27.3916 53.4761 27.416C53.3619 27.427 53.2471 27.4301 53.1326 27.4253H37.2747C37.1428 27.433 37.0105 27.4273 36.8798 27.4081C36.6969 27.3842 36.5308 27.2891 36.4175 27.1435C36.3041 26.9979 36.2527 26.8135 36.2744 26.6303C36.2889 26.2486 36.4837 25.9722 36.893 25.9208C37.0727 25.9026 37.2534 25.8955 37.434 25.8998L45.2655 25.8984Z" fill="#f9f2ef"/>
<path d="M46.3222 49.478C44.0254 49.478 41.7286 49.478 39.4318 49.478C38.7736 49.478 38.4788 49.2148 38.5012 48.6751C38.5196 48.2487 38.7526 48.017 39.1685 47.9617C39.2999 47.9512 39.4317 47.9485 39.5634 47.9538H53.0468C53.1626 47.9538 53.2771 47.9538 53.3916 47.9538C53.5894 47.9695 53.7751 48.0553 53.9153 48.1958C54.0555 48.3362 54.141 48.522 54.1563 48.7199C54.1669 49.1332 53.8773 49.4517 53.4087 49.4635C52.5229 49.4872 51.6371 49.4767 50.7513 49.4767L46.3222 49.478Z" fill="#f9f2ef"/>
<path d="M42.1268 53.9063C42.4887 53.4693 42.8704 53.0454 43.21 52.59C43.4338 52.2899 43.6707 52.0754 44.0669 52.1517C44.4894 52.2333 44.65 52.5348 44.6974 52.9283C44.7698 53.539 45.1659 53.9286 45.7201 53.9628C46.4687 53.9907 47.2182 53.9444 47.9576 53.8246C48.4052 53.7628 48.8316 53.5614 49.2739 53.414C49.7872 53.2495 50.3558 53.4416 50.5124 53.8312C50.6691 54.2208 50.3808 54.6512 49.8175 54.85C48.5592 55.3001 47.2811 55.6397 45.9215 55.4976C45.1021 55.4192 44.3403 55.042 43.7813 54.438C43.5101 54.6644 43.2548 54.9118 42.9639 55.1172C41.9412 55.8398 40.9553 55.5252 40.571 54.3274C40.4367 53.8711 40.3597 53.3997 40.342 52.9243C40.3117 52.4123 40.6052 52.1201 41.0514 52.0991C41.5345 52.0754 41.8201 52.3492 41.8701 52.877C41.9004 53.2008 41.9386 53.5219 41.9728 53.8444L42.1268 53.9063Z" fill="#c49073"/>
<path d="M47.6725 31.865C45.8193 31.865 43.966 31.865 42.1128 31.865C41.5139 31.865 41.2191 31.5768 41.248 31.0503C41.2704 30.6488 41.4784 30.4106 41.8811 30.3619C42.0276 30.3469 42.1749 30.3412 42.3221 30.3448H53.048C53.1955 30.3417 53.3432 30.3465 53.4902 30.3592C53.9219 30.4066 54.122 30.6817 54.1483 31.0884C54.1564 31.1832 54.1454 31.2786 54.1159 31.369C54.0865 31.4594 54.0392 31.543 53.9768 31.6148C53.9145 31.6866 53.8383 31.7451 53.7529 31.787C53.6676 31.8288 53.5746 31.8531 53.4797 31.8584C53.202 31.8834 52.9216 31.8676 52.6439 31.8676L47.6725 31.865Z" fill="#f9f2ef"/>
<path d="M48.7055 36.2246C47.2287 36.2246 45.7519 36.2312 44.2751 36.2246C43.6946 36.2246 43.3537 35.8219 43.4669 35.3112C43.5656 34.8715 43.8618 34.7083 44.3001 34.711C45.382 34.7175 46.4653 34.711 47.5485 34.711C49.4018 34.711 51.2554 34.711 53.1096 34.711C53.7677 34.711 54.0717 34.94 54.0757 35.4217C54.0757 35.968 53.7716 36.2246 53.0859 36.2259C51.6249 36.2259 50.1652 36.2259 48.7055 36.2259V36.2246Z" fill="#f9f2ef"/>
<path d="M48.9626 40.6669C47.5043 40.6669 46.0446 40.6735 44.5862 40.6669C44.0386 40.6669 43.7227 40.3339 43.7609 39.8522C43.7951 39.4099 44.0834 39.1612 44.6072 39.1572C45.7537 39.1506 46.9014 39.1572 48.0492 39.1572C49.7366 39.1572 51.4248 39.1572 53.114 39.1572C53.7721 39.1572 54.0748 39.3836 54.0801 39.8667C54.0867 40.4116 53.7761 40.6696 53.0929 40.6722C51.7162 40.6722 50.3394 40.6722 48.9626 40.6722V40.6669Z" fill="#f9f2ef"/>
<rect x="21.6484" y="14.543" width="2.19528" height="3.29291" rx="0.8" transform="rotate(-32 21.6484 14.543)" fill="url(#paint0_linear_1999_64966)"/>
<path d="M21.875 16.9863L25.5984 14.6597L39.5582 37.0001L40.0232 41.8868L35.8348 39.3267L21.875 16.9863Z" fill="url(#paint1_linear_1999_64966)"/>
<rect x="20.0156" y="18.1504" width="1.09764" height="8.7811" transform="rotate(-32 20.0156 18.1504)" fill="#c49073"/>
<rect x="20.9453" y="17.5684" width="1.09764" height="2.19528" transform="rotate(-32 20.9453 17.5684)" fill="#c49073"/>
<path d="M22.6016 41.9962H28.6051C28.6051 41.9962 27.1501 41.9984 27.1337 43.8503C27.117 45.7323 28.6051 48.0881 28.6051 48.0881H22.6016C22.6016 48.0881 23.9145 45.7837 23.8964 43.8503C23.8786 41.9462 22.6016 41.9962 22.6016 41.9962Z" fill="url(#paint2_linear_1999_64966)"/>
<circle cx="25.553" cy="39.4808" r="4.19365" fill="url(#paint3_linear_1999_64966)"/>
<rect x="17.5312" y="47.6484" width="15.8617" height="4.32608" rx="2.16304" fill="url(#paint4_linear_1999_64966)"/>
<rect x="16" y="49.9434" width="19.1289" height="4.32608" rx="0.8" fill="url(#paint5_linear_1999_64966)"/>
<defs>
<linearGradient id="paint0_linear_1999_64966" x1="22.7461" y1="14.543" x2="22.7461" y2="17.8359" gradientUnits="userSpaceOnUse">
<stop stop-color="#c49073"/>
<stop offset="0.557292" stop-color="#1D524C"/>
</linearGradient>
<linearGradient id="paint1_linear_1999_64966" x1="22.1201" y1="16.9228" x2="40.0232" y2="41.8868" gradientUnits="userSpaceOnUse">
<stop stop-color="#c49073"/>
<stop offset="0.541667" stop-color="#1D524C"/>
</linearGradient>
<linearGradient id="paint2_linear_1999_64966" x1="25.6033" y1="39.7008" x2="25.6033" y2="48.0881" gradientUnits="userSpaceOnUse">
<stop stop-color="#B5E4D8"/>
<stop offset="1" stop-color="#2ECBC0"/>
</linearGradient>
<linearGradient id="paint3_linear_1999_64966" x1="25.553" y1="35.2871" x2="25.553" y2="43.6744" gradientUnits="userSpaceOnUse">
<stop stop-color="#B5E4D8"/>
<stop offset="1" stop-color="#2ECBC0"/>
</linearGradient>
<linearGradient id="paint4_linear_1999_64966" x1="25.4621" y1="47.6484" x2="25.4621" y2="51.9745" gradientUnits="userSpaceOnUse">
<stop stop-color="#B5E4D8"/>
<stop offset="1" stop-color="#2ECBC0"/>
</linearGradient>
<linearGradient id="paint5_linear_1999_64966" x1="25.5645" y1="49.9434" x2="25.5645" y2="54.2694" gradientUnits="userSpaceOnUse">
<stop stop-color="#B5E4D8"/>
<stop offset="1" stop-color="#2ECBC0"/>
</linearGradient>
</defs>
</svg>
