<svg width="80" height="80" viewBox="0 0 80 80" fill="none" xmlns="http://www.w3.org/2000/svg">
<path d="M45.3616 28.2824C45.3616 35.9492 39.1465 42.1644 31.4796 42.1644C23.8128 42.1644 17.5977 35.9492 17.5977 28.2824C17.5977 20.6156 23.8128 14.4004 31.4796 14.4004C39.1465 14.4004 45.3616 20.6156 45.3616 28.2824ZM21.4846 28.2824C21.4846 33.8025 25.9595 38.2774 31.4796 38.2774C36.9997 38.2774 41.4747 33.8025 41.4747 28.2824C41.4747 22.7623 36.9997 18.2873 31.4796 18.2873C25.9595 18.2873 21.4846 22.7623 21.4846 28.2824Z" fill="url(#paint0_linear_1999_65061)"/>
<path d="M31.031 44.5545C31.031 44.5545 33.395 49.7997 31.0237 54.3446C22.3257 71.0155 51.3712 63.8086 55.8457 53.9464C57.8696 49.4854 55.8457 41.0324 55.8457 41.0324" stroke="url(#paint1_linear_1999_65061)" stroke-width="4.8"/>
<rect x="25.9805" y="45.832" width="11.0008" height="5.23849" rx="2.4" fill="url(#paint2_linear_1999_65061)"/>
<rect x="50.6016" y="43.4746" width="11.0008" height="5.23849" rx="2.4" transform="rotate(-30 50.6016 43.4746)" fill="url(#paint3_linear_1999_65061)"/>
<path d="M22.3125 41.5469C22.3125 40.2572 23.789 39.4543 24.9275 40.0601C26.8026 41.0577 29.361 42.165 31.4798 42.165C33.5987 42.165 36.1571 41.0577 38.0322 40.0601C39.1707 39.4543 40.6472 40.2572 40.6472 41.5469V45.2796C40.6472 46.1633 39.9309 46.8796 39.0472 46.8796H23.9125C23.0288 46.8796 22.3125 46.1633 22.3125 45.2796V41.5469Z" fill="#0B4C43"/>
<path d="M44.5675 20.1668C46.3152 19.327 48.2552 18.9682 50.1877 19.1275C52.1201 19.2867 53.9752 19.9583 55.5618 21.073C57.1484 22.1877 58.4091 23.7052 59.2142 25.4692C60.0192 27.2332 60.3394 29.1799 60.1418 31.1089C59.9443 33.0378 59.236 34.8792 58.0901 36.4433C56.9441 38.0075 55.4019 39.2379 53.6223 40.0078C51.8427 40.7777 49.89 41.0592 47.9654 40.8234C46.0407 40.5876 44.2138 39.843 42.6726 38.6662L44.526 36.239C45.6356 37.0862 46.951 37.6224 48.3367 37.7921C49.7225 37.9619 51.1284 37.7592 52.4097 37.2049C53.6911 36.6506 54.8015 35.7647 55.6265 34.6385C56.4516 33.5123 56.9615 32.1865 57.1038 30.7977C57.2461 29.4088 57.0155 28.0072 56.4359 26.7371C55.8563 25.467 54.9485 24.3744 53.8062 23.5719C52.6638 22.7693 51.3282 22.2858 49.9368 22.1711C48.5454 22.0564 47.1486 22.3147 45.8903 22.9194L44.5675 20.1668Z" fill="url(#paint4_linear_1999_65061)"/>
<path d="M48.4588 43.1027C47.8138 41.9855 48.6936 40.5464 49.9811 40.4651C51.5897 40.3635 53.4934 40.0642 54.7913 39.2825C55.9823 38.5653 57.0718 37.1957 57.8931 35.9435C58.6043 34.859 60.3034 34.8075 60.9518 35.9306L61.9016 37.5757C62.3434 38.3409 62.0812 39.3195 61.316 39.7613L51.6119 45.364C50.8466 45.8058 49.8681 45.5436 49.4262 44.7783L48.4588 43.1027Z" fill="#0B4C43"/>
<rect x="34.8867" y="43.2109" width="3.66694" height="1.57155" fill="url(#paint5_radial_1999_65061)"/>
<rect x="56.8867" y="38.7598" width="3.66694" height="1.57155" transform="rotate(-30 56.8867 38.7598)" fill="url(#paint6_radial_1999_65061)"/>
<defs>
<linearGradient id="paint0_linear_1999_65061" x1="31.4796" y1="14.4004" x2="31.4796" y2="42.1644" gradientUnits="userSpaceOnUse">
<stop stop-color="#1D524C"/>
<stop offset="1" stop-color="#208C84"/>
</linearGradient>
<linearGradient id="paint1_linear_1999_65061" x1="41.1907" y1="42.6884" x2="44.9099" y2="62.9376" gradientUnits="userSpaceOnUse">
<stop stop-color="#c49073"/>
<stop offset="0.890625" stop-color="#02142d"/>
</linearGradient>
<linearGradient id="paint2_linear_1999_65061" x1="31.4809" y1="45.832" x2="31.4809" y2="51.0705" gradientUnits="userSpaceOnUse">
<stop stop-color="#0F6B5F"/>
<stop offset="1" stop-color="#1D524C"/>
</linearGradient>
<linearGradient id="paint3_linear_1999_65061" x1="56.102" y1="43.4746" x2="56.102" y2="48.7131" gradientUnits="userSpaceOnUse">
<stop stop-color="#0F6B5F"/>
<stop offset="1" stop-color="#1D524C"/>
</linearGradient>
<linearGradient id="paint4_linear_1999_65061" x1="46.4688" y1="19.4622" x2="52.1146" y2="40.5327" gradientUnits="userSpaceOnUse">
<stop stop-color="#1D524C"/>
<stop offset="1" stop-color="#208C84"/>
</linearGradient>
<radialGradient id="paint5_radial_1999_65061" cx="0" cy="0" r="1" gradientUnits="userSpaceOnUse" gradientTransform="translate(36.7202 43.9967) rotate(90) scale(0.785773 1.83347)">
<stop offset="0.046875" stop-color="white"/>
<stop offset="1" stop-color="#C6EEE2"/>
</radialGradient>
<radialGradient id="paint6_radial_1999_65061" cx="0" cy="0" r="1" gradientUnits="userSpaceOnUse" gradientTransform="translate(58.7202 39.5455) rotate(90) scale(0.785773 1.83347)">
<stop offset="0.046875" stop-color="white"/>
<stop offset="1" stop-color="#C6EEE2"/>
</radialGradient>
</defs>
</svg>
