<svg width="80" height="80" viewBox="0 0 80 80" fill="none" xmlns="http://www.w3.org/2000/svg">
<path d="M40.5459 46.308C40.5459 50.2123 34.0986 66.0011 30.1942 66.0011C26.2899 66.0011 18.0752 40.2493 19.0852 35.7045C23.3773 29.6449 26.1546 38.986 33.4765 38.986C40.2934 37.9767 40.5459 42.4037 40.5459 46.308Z" fill="url(#paint0_linear_1999_65090)"/>
<path d="M46.3529 47.224C46.3529 49.8453 50.7349 60.4456 53.3884 60.4456C56.042 60.4456 61.6252 43.1563 60.9387 40.105C58.0216 36.0367 56.134 42.3081 51.1577 42.3081C46.5245 41.6305 46.3529 44.6027 46.3529 47.224Z" fill="url(#paint1_linear_1999_65090)"/>
<path fill-rule="evenodd" clip-rule="evenodd" d="M45.3431 26.1091C45.3431 19.9737 40.3694 15 34.234 15C28.0987 15 23.125 19.9737 23.125 26.1091C23.125 32.2444 28.0987 37.2181 34.234 37.2181C36.611 37.2181 38.8135 36.4716 40.6201 35.2003L30.2665 26.1091H45.3431Z" fill="url(#paint2_linear_1999_65090)"/>
<path fill-rule="evenodd" clip-rule="evenodd" d="M43.8281 33.4313C43.8281 29.3875 47.1063 26.1094 51.15 26.1094C55.1938 26.1094 58.4719 29.3875 58.4719 33.4313C58.4719 37.475 55.1938 40.7531 51.15 40.7531C49.5834 40.7531 48.1317 40.2611 46.941 39.4232L53.765 33.4313H43.8281Z" fill="url(#paint3_linear_1999_65090)"/>
<defs>
<linearGradient id="paint0_linear_1999_65090" x1="31.6256" y1="33.6853" x2="29.7729" y2="66.0011" gradientUnits="userSpaceOnUse">
<stop stop-color="#c49073"/>
<stop offset="1" stop-color="#C6EEE2"/>
</linearGradient>
<linearGradient id="paint1_linear_1999_65090" x1="53.6748" y1="38.7324" x2="53.6748" y2="60.4456" gradientUnits="userSpaceOnUse">
<stop stop-color="#0B4C43"/>
<stop offset="1" stop-color="#c49073"/>
</linearGradient>
<linearGradient id="paint2_linear_1999_65090" x1="34.234" y1="15" x2="34.234" y2="37.2181" gradientUnits="userSpaceOnUse">
<stop stop-color="#0F6B5F"/>
<stop offset="1" stop-color="#2AB7AC"/>
</linearGradient>
<linearGradient id="paint3_linear_1999_65090" x1="51.15" y1="26.1094" x2="51.15" y2="40.7531" gradientUnits="userSpaceOnUse">
<stop stop-color="#0F6B5F"/>
<stop offset="1" stop-color="#2AB7AC"/>
</linearGradient>
</defs>
</svg>
