<svg width="80" height="80" viewBox="0 0 80 80" fill="none" xmlns="http://www.w3.org/2000/svg">
<path d="M48.5728 15.5938C49.0573 15.5937 49.5371 15.6894 49.9846 15.8753C50.4321 16.0612 50.8385 16.3336 51.1804 16.6769C51.5224 17.0203 51.7932 17.4277 51.9773 17.876C52.1613 18.3242 52.2551 18.8044 52.2532 19.2889V21.0626H42.1875L48.5728 15.5938Z" fill="#c49073"/>
<path d="M48.5728 15.5938C49.0573 15.5937 49.5371 15.6894 49.9846 15.8753C50.4321 16.0612 50.8385 16.3336 51.1804 16.6769C51.5224 17.0203 51.7932 17.4277 51.9773 17.876C52.1613 18.3242 52.2551 18.8044 52.2532 19.2889V21.0626H42.1875L48.5728 15.5938Z" fill="url(#paint0_linear_1999_64990)"/>
<path d="M50.1829 64.37C57.4402 49.9736 42.9108 28.7929 48.5718 15.5938H17.7245C16.3106 15.5962 14.9491 16.129 13.9091 17.0869C12.8691 18.0448 12.2264 19.358 12.1079 20.767C10.9107 34.1731 21.8927 52.6193 14.4432 65.2864H48.5423C48.8733 65.2975 49.201 65.2181 49.4902 65.0566C49.7793 64.8951 50.0188 64.6577 50.1829 64.37Z" fill="#c49073"/>
<path d="M50.1829 64.37C57.4402 49.9736 42.9108 28.7929 48.5718 15.5938H17.7246C16.3106 15.5962 14.9491 16.129 13.9091 17.0869C12.8691 18.0448 12.2264 19.358 12.1079 20.767C10.9107 34.1731 21.8927 52.6193 14.4432 65.2864H48.5423C48.8733 65.2975 49.201 65.2181 49.4902 65.0566C49.7793 64.8951 50.0188 64.6577 50.1829 64.37Z" fill="#208C84"/>
<path d="M14.4362 65.3064C13.5777 65.3064 12.7544 64.9654 12.1473 64.3583C11.5403 63.7513 11.1992 62.9279 11.1992 62.0694V60.8574H45.4756V62.0694C45.4756 62.9279 45.8167 63.7513 46.4237 64.3583C47.0308 64.9654 47.8541 65.3064 48.7126 65.3064H14.4362Z" fill="#c49073"/>
<path d="M14.4362 65.3064C13.5777 65.3064 12.7544 64.9654 12.1473 64.3583C11.5403 63.7513 11.1992 62.9279 11.1992 62.0694V60.8574H45.4756V62.0694C45.4756 62.9279 45.8167 63.7513 46.4237 64.3583C47.0308 64.9654 47.8541 65.3064 48.7126 65.3064H14.4362Z" fill="url(#paint1_linear_1999_64990)"/>
<path d="M41.144 22.4648H16.8594V24.4898H41.144V22.4648Z" fill="url(#paint2_linear_1999_64990)"/>
<path d="M42.273 29.6191H17.9883V31.6441H42.273V29.6191Z" fill="url(#paint3_linear_1999_64990)"/>
<path d="M43.5815 35.0254H19.2969V37.0503H43.5815V35.0254Z" fill="url(#paint4_linear_1999_64990)"/>
<path d="M44.8901 40.4551H20.6055V42.48H44.8901V40.4551Z" fill="url(#paint5_linear_1999_64990)"/>
<path d="M42.1926 56.6235C44.2579 56.6235 45.9321 54.9493 45.9321 52.884C45.9321 50.8188 44.2579 49.1445 42.1926 49.1445C40.1274 49.1445 38.4531 50.8188 38.4531 52.884C38.4531 54.9493 40.1274 56.6235 42.1926 56.6235Z" fill="url(#paint6_radial_1999_64990)"/>
<path d="M67.1532 33.0504C66.3144 42.6387 62.3367 50.1231 58.269 49.7672C54.2012 49.4114 51.5836 41.35 52.4225 31.7616C53.2614 22.1733 61.3068 15.0448 61.3068 15.0448C61.3068 15.0448 67.9921 23.4621 67.1532 33.0504Z" fill="url(#paint7_linear_1999_64990)"/>
<path d="M61.31 15.0452L58.2165 60.8268L55.8911 64.8644L61.31 15.0452Z" fill="url(#paint8_linear_1999_64990)"/>
<path d="M58.3281 24.8574L60.2007 27.672L59.9245 30.8285L58.3281 24.8574Z" fill="url(#paint9_linear_1999_64990)"/>
<path d="M61.6225 23.5549L60.4866 24.4195L60.3862 25.5673L61.6225 23.5549Z" fill="url(#paint10_linear_1999_64990)"/>
<path d="M62.4375 30.0566L59.4814 33.157L59.1314 37.1568L62.4375 30.0566Z" fill="url(#paint11_linear_1999_64990)"/>
<path d="M54.9023 33.3828L58.8098 39.256L58.2335 45.8427L54.9023 33.3828Z" fill="url(#paint12_linear_1999_64990)"/>
<defs>
<linearGradient id="paint0_linear_1999_64990" x1="47.2204" y1="15.5938" x2="47.2204" y2="21.0626" gradientUnits="userSpaceOnUse">
<stop stop-color="#0F6B5F"/>
<stop offset="1" stop-color="#1D524C"/>
</linearGradient>
<linearGradient id="paint1_linear_1999_64990" x1="29.9559" y1="60.8574" x2="29.9559" y2="65.3064" gradientUnits="userSpaceOnUse">
<stop stop-color="#0F6B5F"/>
<stop offset="1" stop-color="#1D524C"/>
</linearGradient>
<linearGradient id="paint2_linear_1999_64990" x1="29.0017" y1="22.4648" x2="29.0017" y2="24.4898" gradientUnits="userSpaceOnUse">
<stop offset="0.046875" stop-color="white"/>
<stop offset="1" stop-color="#f9f2ef"/>
</linearGradient>
<linearGradient id="paint3_linear_1999_64990" x1="30.1306" y1="29.6191" x2="30.1306" y2="31.6441" gradientUnits="userSpaceOnUse">
<stop offset="0.046875" stop-color="white"/>
<stop offset="1" stop-color="#f9f2ef"/>
</linearGradient>
<linearGradient id="paint4_linear_1999_64990" x1="31.4392" y1="35.0254" x2="31.4392" y2="37.0503" gradientUnits="userSpaceOnUse">
<stop offset="0.046875" stop-color="white"/>
<stop offset="1" stop-color="#f9f2ef"/>
</linearGradient>
<linearGradient id="paint5_linear_1999_64990" x1="32.7478" y1="40.4551" x2="32.7478" y2="42.48" gradientUnits="userSpaceOnUse">
<stop offset="0.046875" stop-color="white"/>
<stop offset="1" stop-color="#f9f2ef"/>
</linearGradient>
<radialGradient id="paint6_radial_1999_64990" cx="0" cy="0" r="1" gradientUnits="userSpaceOnUse" gradientTransform="translate(42.1926 52.884) rotate(90) scale(3.73951)">
<stop offset="0.046875" stop-color="white"/>
<stop offset="1" stop-color="#f9f2ef"/>
</radialGradient>
<linearGradient id="paint7_linear_1999_64990" x1="61.3068" y1="15.0448" x2="58.269" y2="49.7672" gradientUnits="userSpaceOnUse">
<stop stop-color="#B5E4D8"/>
<stop offset="1" stop-color="#2ECBC0"/>
</linearGradient>
<linearGradient id="paint8_linear_1999_64990" x1="61.2364" y1="15.0387" x2="56.8697" y2="64.95" gradientUnits="userSpaceOnUse">
<stop offset="0.0952962" stop-color="#208C84"/>
<stop offset="0.910918" stop-color="#0F6B5F"/>
</linearGradient>
<linearGradient id="paint9_linear_1999_64990" x1="59.0803" y1="24.7651" x2="59.8262" y2="30.8405" gradientUnits="userSpaceOnUse">
<stop offset="0.0952962" stop-color="#208C84"/>
<stop offset="0.910918" stop-color="#0F6B5F"/>
</linearGradient>
<linearGradient id="paint10_linear_1999_64990" x1="61.0964" y1="23.5089" x2="60.9123" y2="25.6133" gradientUnits="userSpaceOnUse">
<stop offset="0.0952962" stop-color="#208C84"/>
<stop offset="0.910918" stop-color="#0F6B5F"/>
</linearGradient>
<linearGradient id="paint11_linear_1999_64990" x1="61.5192" y1="29.7759" x2="59.2514" y2="37.1935" gradientUnits="userSpaceOnUse">
<stop offset="0.0952962" stop-color="#208C84"/>
<stop offset="0.910918" stop-color="#0F6B5F"/>
</linearGradient>
<linearGradient id="paint12_linear_1999_64990" x1="56.4718" y1="33.1901" x2="58.0285" y2="45.8679" gradientUnits="userSpaceOnUse">
<stop offset="0.0952962" stop-color="#208C84"/>
<stop offset="0.910918" stop-color="#0F6B5F"/>
</linearGradient>
</defs>
</svg>
