<svg width="80" height="80" viewBox="0 0 80 80" fill="none" xmlns="http://www.w3.org/2000/svg">
<rect x="36.3571" y="61.1426" width="8.5" height="4.85714" rx="1.21429" fill="url(#paint0_linear_1999_65082)"/>
<path d="M28.2609 34.4287C31.3757 25.9743 48.2176 25.9743 51.3323 34.4287C52.8168 38.4581 49.7477 41.0697 49.5109 45.3573C49.3976 47.41 49.5343 50.0209 49.7065 52.176C49.8812 54.3621 48.1791 56.2859 45.9859 56.2859H33.6073C31.4142 56.2859 29.7121 54.3621 29.8868 52.176C30.059 50.0209 30.1957 47.41 30.0823 45.3573C29.8456 41.0697 26.7764 38.4581 28.2609 34.4287Z" fill="url(#paint1_linear_1999_65082)"/>
<circle cx="40" cy="32" r="17" fill="url(#paint2_linear_1999_65082)"/>
<path d="M40.6071 56.2849L40.6071 41.3087M35.1429 34.4277C35.1429 34.4277 35.1429 40.9039 40.6071 40.9039C46.0714 40.9039 46.0714 34.4277 46.0714 34.4277" stroke="url(#paint3_linear_1999_65082)" stroke-width="2.42857"/>
<rect x="25.4286" y="52.6426" width="30.3571" height="4.85714" rx="2.42857" fill="#0B4C43"/>
<rect x="27.8571" y="57.5" width="25.5" height="4.85714" rx="2.42857" fill="url(#paint4_linear_1999_65082)"/>
<defs>
<linearGradient id="paint0_linear_1999_65082" x1="40.6071" y1="62.3569" x2="40.6071" y2="65.9997" gradientUnits="userSpaceOnUse">
<stop stop-color="#c49073"/>
<stop offset="0.387854" stop-color="#0F6B5F"/>
</linearGradient>
<linearGradient id="paint1_linear_1999_65082" x1="39.7966" y1="44.7499" x2="39.7966" y2="56.2856" gradientUnits="userSpaceOnUse">
<stop stop-color="#2AB7AC"/>
<stop offset="1" stop-color="#0F6B5F"/>
</linearGradient>
<linearGradient id="paint2_linear_1999_65082" x1="40" y1="15" x2="40" y2="56.2857" gradientUnits="userSpaceOnUse">
<stop stop-color="#0F6B5F"/>
<stop offset="1" stop-color="#2AB7AC"/>
</linearGradient>
<linearGradient id="paint3_linear_1999_65082" x1="40.6071" y1="34.4277" x2="40.6071" y2="56.2849" gradientUnits="userSpaceOnUse">
<stop stop-color="#C6EEE2"/>
<stop offset="1" stop-color="white"/>
</linearGradient>
<linearGradient id="paint4_linear_1999_65082" x1="40.6071" y1="57.5" x2="40.6071" y2="62.3571" gradientUnits="userSpaceOnUse">
<stop stop-color="#c49073"/>
<stop offset="0.411458" stop-color="#0B4C43"/>
</linearGradient>
</defs>
</svg>
