<svg width="80" height="80" viewBox="0 0 80 80" fill="none" xmlns="http://www.w3.org/2000/svg">
<path fill-rule="evenodd" clip-rule="evenodd" d="M62.6145 49.8541C59.4889 51.3913 55.9721 52.2546 52.2538 52.2546C39.271 52.2546 28.7463 41.73 28.7463 28.7473C28.7463 25.029 29.6096 21.5123 31.1468 18.3867C23.3593 22.2165 18 30.2292 18 39.4935C18 52.4763 28.5246 63.0008 41.5075 63.0008C50.7719 63.0008 58.7846 57.6416 62.6145 49.8541Z" fill="url(#paint0_linear_1999_65100)"/>
<path d="M51.5821 18L54.9377 24.7992L62.4412 25.8895L57.0116 31.182L58.2934 38.655L51.5821 35.1267L44.8708 38.655L46.1526 31.182L40.723 25.8895L48.2265 24.7992L51.5821 18Z" fill="url(#paint1_linear_1999_65100)"/>
<defs>
<linearGradient id="paint0_linear_1999_65100" x1="40.3072" y1="18.3867" x2="40.3072" y2="63.0008" gradientUnits="userSpaceOnUse">
<stop stop-color="#40D3C8"/>
<stop offset="1" stop-color="#0F6B5F"/>
</linearGradient>
<linearGradient id="paint1_linear_1999_65100" x1="51.5821" y1="18" x2="51.5821" y2="35.1267" gradientUnits="userSpaceOnUse">
<stop offset="0.046875" stop-color="#c49073"/>
<stop offset="1" stop-color="#f9f2ef"/>
</linearGradient>
</defs>
</svg>
