<svg width="80" height="80" viewBox="0 0 80 80" fill="none" xmlns="http://www.w3.org/2000/svg">
<path d="M15.1992 26.4004L26.3992 31.429V47.7718L15.1992 52.8004V26.4004Z" fill="url(#paint0_linear_1999_65022)"/>
<path d="M15.1992 26.4004L4.79922 31.429V47.7718L15.1992 52.8004V26.4004Z" fill="url(#paint1_linear_1999_65022)"/>
<path d="M9.60156 31.1992L5.60156 33.0278V36.5706L9.60156 35.9992V31.1992Z" fill="url(#paint2_radial_1999_65022)"/>
<path d="M9.60156 37.6016L5.60156 37.8301V42.973L9.60156 44.0016V37.6016Z" fill="url(#paint3_radial_1999_65022)"/>
<path d="M14.4023 29.6016L10.4023 31.4301V40.573L14.4023 41.6016V29.6016Z" fill="url(#paint4_linear_1999_65022)"/>
<path d="M64.8388 26.4004L53.6388 31.429V47.7718L64.8388 52.8004V26.4004Z" fill="url(#paint5_linear_1999_65022)"/>
<path d="M64.8388 26.4004L75.2388 31.429V47.7718L64.8388 52.8004V26.4004Z" fill="url(#paint6_linear_1999_65022)"/>
<path d="M70.4365 31.1992L74.4365 33.0278V36.5706L70.4365 35.9992V31.1992Z" fill="url(#paint7_radial_1999_65022)"/>
<path d="M70.4365 37.6016L74.4365 37.8301V42.973L70.4365 44.0016V37.6016Z" fill="url(#paint8_radial_1999_65022)"/>
<path d="M65.6357 29.6016L69.6357 31.4301V40.573L65.6357 41.6016V29.6016Z" fill="url(#paint9_linear_1999_65022)"/>
<path d="M40 14.4004L60.8 24.1528V55.848L40 65.6004V14.4004Z" fill="url(#paint10_linear_1999_65022)"/>
<path d="M40 14.4004L19.2 24.1528V55.848L40 65.6004V14.4004Z" fill="#c49073"/>
<path d="M36 19.1992L32 21.0278V25.3706L36 23.9992V19.1992Z" fill="url(#paint11_radial_1999_65022)"/>
<path d="M30.4023 21.6016L26.4023 23.4301V27.773L30.4023 26.4016V21.6016Z" fill="url(#paint12_radial_1999_65022)"/>
<path d="M24.8008 24L20.8008 25.8286V30.1714L24.8008 28.8V24Z" fill="url(#paint13_radial_1999_65022)"/>
<path d="M36 25.6016L32 27.4301V31.773L36 30.4016V25.6016Z" fill="url(#paint14_radial_1999_65022)"/>
<path d="M30.4023 28L26.4023 29.8286V34.1714L30.4023 32.8V28Z" fill="url(#paint15_radial_1999_65022)"/>
<path d="M30.4023 47.1992L23.2023 49.8278V57.1992L30.4023 60.5741V47.1992Z" fill="url(#paint16_linear_1999_65022)"/>
<path d="M24.8008 30.4004L20.8008 32.229V36.5718L24.8008 35.2004V30.4004Z" fill="url(#paint17_radial_1999_65022)"/>
<path d="M36 32L32 33.8286V38.1714L36 36.8V32Z" fill="url(#paint18_radial_1999_65022)"/>
<path d="M36 38.4004L32 40.229V50.9718L36 49.6004V38.4004Z" fill="url(#paint19_linear_1999_65022)"/>
<path d="M30.4023 34.4004L26.4023 36.229V46.9718L30.4023 45.6004V34.4004Z" fill="url(#paint20_linear_1999_65022)"/>
<path d="M24.8008 36.8008L20.8008 38.6294V49.3722L24.8008 48.0008V36.8008Z" fill="url(#paint21_linear_1999_65022)"/>
<path d="M44 19.1992L48 21.0278V25.3706L44 23.9992V19.1992Z" fill="url(#paint22_radial_1999_65022)"/>
<path d="M49.6016 21.6016L53.6016 23.4301V27.773L49.6016 26.4016V21.6016Z" fill="url(#paint23_radial_1999_65022)"/>
<path d="M55.2031 24L59.2031 25.8286V30.1714L55.2031 28.8V24Z" fill="url(#paint24_radial_1999_65022)"/>
<path d="M44 25.6016L48 27.4301V31.773L44 30.4016V25.6016Z" fill="url(#paint25_radial_1999_65022)"/>
<path d="M49.6016 28L53.6016 29.8286V34.1714L49.6016 32.8V28Z" fill="url(#paint26_radial_1999_65022)"/>
<path d="M51.2031 47.1992L58.4031 49.8278V56.3992L51.2031 59.7741V47.1992Z" fill="url(#paint27_linear_1999_65022)"/>
<path d="M44 44.8008L49.6 46.6294V57.7728L44 60.3477V44.8008Z" fill="url(#paint28_radial_1999_65022)"/>
<path d="M55.2031 30.4004L59.2031 32.229V36.5718L55.2031 35.2004V30.4004Z" fill="url(#paint29_radial_1999_65022)"/>
<path d="M44 32L48 33.8286V38.1714L44 36.8V32Z" fill="url(#paint30_radial_1999_65022)"/>
<path d="M44 38.4004L48 40.229V44.5718L44 43.2004V38.4004Z" fill="url(#paint31_radial_1999_65022)"/>
<path d="M49.6016 34.4004L53.6016 36.229V46.9718L49.6016 45.6004V34.4004Z" fill="url(#paint32_radial_1999_65022)"/>
<path d="M55.2031 36.8008L59.2031 38.6294V48.5722L55.2031 47.2008V36.8008Z" fill="url(#paint33_radial_1999_65022)"/>
<defs>
<linearGradient id="paint0_linear_1999_65022" x1="20.7992" y1="26.4004" x2="20.7992" y2="52.8004" gradientUnits="userSpaceOnUse">
<stop stop-color="#0F6B5F"/>
<stop offset="1" stop-color="#1D524C"/>
</linearGradient>
<linearGradient id="paint1_linear_1999_65022" x1="9.99922" y1="26.4004" x2="9.99922" y2="52.8004" gradientUnits="userSpaceOnUse">
<stop offset="0.0952962" stop-color="#c49073"/>
<stop offset="0.910918" stop-color="#0F6B5F"/>
</linearGradient>
<radialGradient id="paint2_radial_1999_65022" cx="0" cy="0" r="1" gradientUnits="userSpaceOnUse" gradientTransform="translate(7.60156 33.8849) rotate(90) scale(2.68571 2)">
<stop offset="0.046875" stop-color="white"/>
<stop offset="1" stop-color="#f9f2ef"/>
</radialGradient>
<radialGradient id="paint3_radial_1999_65022" cx="0" cy="0" r="1" gradientUnits="userSpaceOnUse" gradientTransform="translate(7.60156 40.8016) rotate(90) scale(3.2 2)">
<stop offset="0.046875" stop-color="white"/>
<stop offset="1" stop-color="#f9f2ef"/>
</radialGradient>
<linearGradient id="paint4_linear_1999_65022" x1="12.4023" y1="29.6016" x2="12.4023" y2="41.6016" gradientUnits="userSpaceOnUse">
<stop offset="0.046875" stop-color="white"/>
<stop offset="1" stop-color="#f9f2ef"/>
</linearGradient>
<linearGradient id="paint5_linear_1999_65022" x1="59.2388" y1="26.4004" x2="59.2388" y2="52.8004" gradientUnits="userSpaceOnUse">
<stop stop-color="#0F6B5F"/>
<stop offset="1" stop-color="#1D524C"/>
</linearGradient>
<linearGradient id="paint6_linear_1999_65022" x1="70.0388" y1="26.4004" x2="70.0388" y2="52.8004" gradientUnits="userSpaceOnUse">
<stop offset="0.0952962" stop-color="#c49073"/>
<stop offset="0.910918" stop-color="#0F6B5F"/>
</linearGradient>
<radialGradient id="paint7_radial_1999_65022" cx="0" cy="0" r="1" gradientUnits="userSpaceOnUse" gradientTransform="translate(72.4365 33.8849) rotate(90) scale(2.68571 2)">
<stop offset="0.046875" stop-color="white"/>
<stop offset="1" stop-color="#f9f2ef"/>
</radialGradient>
<radialGradient id="paint8_radial_1999_65022" cx="0" cy="0" r="1" gradientUnits="userSpaceOnUse" gradientTransform="translate(72.4365 40.8016) rotate(90) scale(3.2 2)">
<stop offset="0.046875" stop-color="white"/>
<stop offset="1" stop-color="#f9f2ef"/>
</radialGradient>
<linearGradient id="paint9_linear_1999_65022" x1="67.6357" y1="29.6016" x2="67.6357" y2="41.6016" gradientUnits="userSpaceOnUse">
<stop offset="0.046875" stop-color="white"/>
<stop offset="1" stop-color="#f9f2ef"/>
</linearGradient>
<linearGradient id="paint10_linear_1999_65022" x1="50.4" y1="14.4004" x2="50.4" y2="65.6004" gradientUnits="userSpaceOnUse">
<stop stop-color="#1D524C"/>
<stop offset="1" stop-color="#c49073"/>
</linearGradient>
<radialGradient id="paint11_radial_1999_65022" cx="0" cy="0" r="1" gradientUnits="userSpaceOnUse" gradientTransform="translate(34 22.2849) rotate(90) scale(3.08571 2)">
<stop offset="0.046875" stop-color="white"/>
<stop offset="1" stop-color="#f9f2ef"/>
</radialGradient>
<radialGradient id="paint12_radial_1999_65022" cx="0" cy="0" r="1" gradientUnits="userSpaceOnUse" gradientTransform="translate(28.4023 24.6873) rotate(90) scale(3.08571 2)">
<stop offset="0.046875" stop-color="white"/>
<stop offset="1" stop-color="#f9f2ef"/>
</radialGradient>
<radialGradient id="paint13_radial_1999_65022" cx="0" cy="0" r="1" gradientUnits="userSpaceOnUse" gradientTransform="translate(22.8008 27.0857) rotate(90) scale(3.08571 2)">
<stop offset="0.046875" stop-color="white"/>
<stop offset="1" stop-color="#f9f2ef"/>
</radialGradient>
<radialGradient id="paint14_radial_1999_65022" cx="0" cy="0" r="1" gradientUnits="userSpaceOnUse" gradientTransform="translate(34 28.6873) rotate(90) scale(3.08571 2)">
<stop offset="0.046875" stop-color="white"/>
<stop offset="1" stop-color="#f9f2ef"/>
</radialGradient>
<radialGradient id="paint15_radial_1999_65022" cx="0" cy="0" r="1" gradientUnits="userSpaceOnUse" gradientTransform="translate(28.4023 31.0857) rotate(90) scale(3.08571 2)">
<stop offset="0.046875" stop-color="white"/>
<stop offset="1" stop-color="#f9f2ef"/>
</radialGradient>
<linearGradient id="paint16_linear_1999_65022" x1="26.8023" y1="47.1992" x2="26.8023" y2="60.5741" gradientUnits="userSpaceOnUse">
<stop offset="0.046875" stop-color="white"/>
<stop offset="1" stop-color="#f9f2ef"/>
</linearGradient>
<radialGradient id="paint17_radial_1999_65022" cx="0" cy="0" r="1" gradientUnits="userSpaceOnUse" gradientTransform="translate(22.8008 33.4861) rotate(90) scale(3.08571 2)">
<stop offset="0.046875" stop-color="white"/>
<stop offset="1" stop-color="#f9f2ef"/>
</radialGradient>
<radialGradient id="paint18_radial_1999_65022" cx="0" cy="0" r="1" gradientUnits="userSpaceOnUse" gradientTransform="translate(34 35.0857) rotate(90) scale(3.08571 2)">
<stop offset="0.046875" stop-color="white"/>
<stop offset="1" stop-color="#f9f2ef"/>
</radialGradient>
<linearGradient id="paint19_linear_1999_65022" x1="34" y1="38.4004" x2="34" y2="50.9718" gradientUnits="userSpaceOnUse">
<stop offset="0.046875" stop-color="white"/>
<stop offset="1" stop-color="#f9f2ef"/>
</linearGradient>
<linearGradient id="paint20_linear_1999_65022" x1="28.4023" y1="34.4004" x2="28.4023" y2="46.9718" gradientUnits="userSpaceOnUse">
<stop offset="0.046875" stop-color="white"/>
<stop offset="1" stop-color="#f9f2ef"/>
</linearGradient>
<linearGradient id="paint21_linear_1999_65022" x1="22.8008" y1="36.8008" x2="22.8008" y2="49.3722" gradientUnits="userSpaceOnUse">
<stop offset="0.046875" stop-color="white"/>
<stop offset="1" stop-color="#f9f2ef"/>
</linearGradient>
<radialGradient id="paint22_radial_1999_65022" cx="0" cy="0" r="1" gradientUnits="userSpaceOnUse" gradientTransform="translate(46 22.2849) rotate(90) scale(3.08571 2)">
<stop offset="0.046875" stop-color="white"/>
<stop offset="1" stop-color="#f9f2ef"/>
</radialGradient>
<radialGradient id="paint23_radial_1999_65022" cx="0" cy="0" r="1" gradientUnits="userSpaceOnUse" gradientTransform="translate(51.6016 24.6873) rotate(90) scale(3.08571 2)">
<stop offset="0.046875" stop-color="white"/>
<stop offset="1" stop-color="#f9f2ef"/>
</radialGradient>
<radialGradient id="paint24_radial_1999_65022" cx="0" cy="0" r="1" gradientUnits="userSpaceOnUse" gradientTransform="translate(57.2031 27.0857) rotate(90) scale(3.08571 2)">
<stop offset="0.046875" stop-color="white"/>
<stop offset="1" stop-color="#f9f2ef"/>
</radialGradient>
<radialGradient id="paint25_radial_1999_65022" cx="0" cy="0" r="1" gradientUnits="userSpaceOnUse" gradientTransform="translate(46 28.6873) rotate(90) scale(3.08571 2)">
<stop offset="0.046875" stop-color="white"/>
<stop offset="1" stop-color="#f9f2ef"/>
</radialGradient>
<radialGradient id="paint26_radial_1999_65022" cx="0" cy="0" r="1" gradientUnits="userSpaceOnUse" gradientTransform="translate(51.6016 31.0857) rotate(90) scale(3.08571 2)">
<stop offset="0.046875" stop-color="white"/>
<stop offset="1" stop-color="#f9f2ef"/>
</radialGradient>
<linearGradient id="paint27_linear_1999_65022" x1="54.8031" y1="47.1992" x2="54.8031" y2="59.7741" gradientUnits="userSpaceOnUse">
<stop offset="0.046875" stop-color="white"/>
<stop offset="1" stop-color="#f9f2ef"/>
</linearGradient>
<radialGradient id="paint28_radial_1999_65022" cx="0" cy="0" r="1" gradientUnits="userSpaceOnUse" gradientTransform="translate(46.8 52.5742) rotate(90) scale(7.77344 2.8)">
<stop offset="0.046875" stop-color="white"/>
<stop offset="1" stop-color="#f9f2ef"/>
</radialGradient>
<radialGradient id="paint29_radial_1999_65022" cx="0" cy="0" r="1" gradientUnits="userSpaceOnUse" gradientTransform="translate(57.2031 33.4861) rotate(90) scale(3.08571 2)">
<stop offset="0.046875" stop-color="white"/>
<stop offset="1" stop-color="#f9f2ef"/>
</radialGradient>
<radialGradient id="paint30_radial_1999_65022" cx="0" cy="0" r="1" gradientUnits="userSpaceOnUse" gradientTransform="translate(46 35.0857) rotate(90) scale(3.08571 2)">
<stop offset="0.046875" stop-color="white"/>
<stop offset="1" stop-color="#f9f2ef"/>
</radialGradient>
<radialGradient id="paint31_radial_1999_65022" cx="0" cy="0" r="1" gradientUnits="userSpaceOnUse" gradientTransform="translate(46 41.4861) rotate(90) scale(3.08571 2)">
<stop offset="0.046875" stop-color="white"/>
<stop offset="1" stop-color="#f9f2ef"/>
</radialGradient>
<radialGradient id="paint32_radial_1999_65022" cx="0" cy="0" r="1" gradientUnits="userSpaceOnUse" gradientTransform="translate(51.6016 40.6861) rotate(90) scale(6.28571 2)">
<stop offset="0.046875" stop-color="white"/>
<stop offset="1" stop-color="#f9f2ef"/>
</radialGradient>
<radialGradient id="paint33_radial_1999_65022" cx="0" cy="0" r="1" gradientUnits="userSpaceOnUse" gradientTransform="translate(57.2031 42.6865) rotate(90) scale(5.88571 2)">
<stop offset="0.046875" stop-color="white"/>
<stop offset="1" stop-color="#f9f2ef"/>
</radialGradient>
</defs>
</svg>
