<svg width="12" height="12" viewBox="0 0 12 12" fill="none" xmlns="http://www.w3.org/2000/svg">
<path d="M3.08685 6.50192L3.17185 6.68742C3.53558 7.43974 4.10845 8.07128 4.82185 8.50642L4.95435 8.58392C4.9684 8.59177 4.98011 8.60323 4.98826 8.61712C4.9964 8.63101 5.0007 8.64682 5.0007 8.66292C5.0007 8.67902 4.9964 8.69483 4.98826 8.70871C4.98011 8.7226 4.9684 8.73406 4.95435 8.74192C4.18042 9.17717 3.55835 9.83902 3.17185 10.6384L3.08685 10.8244C3.07931 10.841 3.06714 10.8551 3.0518 10.865C3.03646 10.8749 3.0186 10.8801 3.00035 10.8801C2.9821 10.8801 2.96424 10.8749 2.9489 10.865C2.93356 10.8551 2.92139 10.841 2.91385 10.8244L2.82885 10.6384C2.44235 9.83902 1.82028 9.17717 1.04635 8.74192C1.0323 8.73406 1.02059 8.7226 1.01244 8.70871C1.0043 8.69483 1 8.67902 1 8.66292C1 8.64682 1.0043 8.63101 1.01244 8.61712C1.02059 8.60323 1.0323 8.59177 1.04635 8.58392L1.17885 8.50642C1.89225 8.07128 2.46512 7.43974 2.82885 6.68742L2.91385 6.50192C2.92139 6.4853 2.93356 6.47121 2.9489 6.46133C2.96424 6.45145 2.9821 6.4462 3.00035 6.4462C3.0186 6.4462 3.03646 6.45145 3.0518 6.46133C3.06714 6.47121 3.07931 6.4853 3.08685 6.50192ZM7.53935 1.36492C8.19744 2.90647 9.34628 4.18749 10.8074 5.00892C10.8319 5.02269 10.8524 5.04276 10.8666 5.06706C10.8808 5.09136 10.8883 5.11901 10.8883 5.14717C10.8883 5.17533 10.8808 5.20298 10.8666 5.22728C10.8524 5.25158 10.8319 5.27165 10.8074 5.28542C9.34617 6.10694 8.19732 7.38816 7.53935 8.92992C7.52635 8.95918 7.50514 8.98404 7.4783 9.00149C7.45145 9.01895 7.42012 9.02823 7.3881 9.02823C7.35608 9.02823 7.32475 9.01895 7.2979 9.00149C7.27106 8.98404 7.24985 8.95918 7.23685 8.92992C6.57889 7.38816 5.43003 6.10694 3.96885 5.28542C3.94429 5.27165 3.92384 5.25158 3.9096 5.22728C3.89537 5.20298 3.88787 5.17533 3.88787 5.14717C3.88787 5.11901 3.89537 5.09136 3.9096 5.06706C3.92384 5.04276 3.94429 5.02269 3.96885 5.00892C5.42992 4.18749 6.57876 2.90647 7.23685 1.36492C7.24985 1.33566 7.27106 1.31079 7.2979 1.29334C7.32475 1.27589 7.35608 1.2666 7.3881 1.2666C7.42012 1.2666 7.45145 1.27589 7.4783 1.29334C7.50514 1.31079 7.52635 1.33566 7.53935 1.36492Z" fill="#fff"/>
</svg>
