<svg width="80" height="80" viewBox="0 0 80 80" fill="none" xmlns="http://www.w3.org/2000/svg">
<path d="M55.6184 61.3288L65.8943 22.0896L69.2006 22.6726L72.507 23.2556L68.7907 63.3693L61.0386 68.9617L55.6184 61.3288Z" fill="#208C84"/>
<path d="M62.5879 21.5084L66.623 17.9584L69.9294 18.5414L73.2357 19.1244L75.8134 23.8404C75.8134 23.8404 71.6867 29.9311 68.0346 29.2871C64.3825 28.6431 62.5879 21.5084 62.5879 21.5084Z" fill="url(#paint0_linear_1999_65011)"/>
<path d="M9.858 52.7553C8.52006 52.955 7.27777 52.0497 7.04286 50.7175C6.80271 49.3556 7.71213 48.0568 9.07411 47.8166L52.9428 40.0814C54.2872 39.8443 55.5692 40.742 55.8062 42.0864C56.0425 43.4262 55.1574 44.7043 53.8192 44.9496C49.5623 45.7299 40.5343 47.3995 33.7921 48.7495C26.1707 50.2755 14.7708 52.0222 9.858 52.7553Z" fill="#0B4C43"/>
<path d="M26.5745 18.4693C48.2553 14.6464 54.366 38.5161 54.366 38.5161L7.51623 46.777C7.51623 46.777 4.89366 22.2922 26.5745 18.4693Z" fill="#0B4C43"/>
<path d="M15.224 19.6515C18.6209 17.3853 21.7088 15.4894 25.2721 14.8021C29.0524 14.073 33.0203 14.582 36.7688 15.6169C40.6265 15.5817 36.3368 32.1154 36.3368 32.1154L22.2743 34.5003C22.2743 34.5003 11.8955 20.7544 15.224 19.6515Z" fill="url(#paint1_radial_1999_65011)"/>
<path d="M12.7445 28.6512C17.4464 27.8221 17.6767 44.9866 17.6767 44.9866L7.51647 46.7782C7.51647 46.7782 8.04264 29.4802 12.7445 28.6512Z" fill="url(#paint2_linear_1999_65011)"/>
<path d="M43.1285 23.2929C47.8304 22.4638 54.3635 38.517 54.3635 38.517L44.2032 40.3085C44.2032 40.3085 38.4266 24.1219 43.1285 23.2929Z" fill="url(#paint3_linear_1999_65011)"/>
<defs>
<linearGradient id="paint0_linear_1999_65011" x1="62.3693" y1="22.7482" x2="75.5947" y2="25.0803" gradientUnits="userSpaceOnUse">
<stop stop-color="#1D524C"/>
<stop offset="1" stop-color="#208C84"/>
</linearGradient>
<radialGradient id="paint1_radial_1999_65011" cx="0" cy="0" r="1" gradientUnits="userSpaceOnUse" gradientTransform="translate(27.3018 24.059) rotate(80) scale(12.8628 15.9548)">
<stop stop-color="#C6EEE2"/>
<stop offset="1" stop-color="#208C84"/>
</radialGradient>
<linearGradient id="paint2_linear_1999_65011" x1="10.9046" y1="36.2867" x2="12.5966" y2="45.8824" gradientUnits="userSpaceOnUse">
<stop offset="0.0952962" stop-color="#208C84"/>
<stop offset="0.807292" stop-color="#0E6257"/>
</linearGradient>
<linearGradient id="paint3_linear_1999_65011" x1="47.5908" y1="29.8171" x2="49.2828" y2="39.4129" gradientUnits="userSpaceOnUse">
<stop offset="0.0952962" stop-color="#208C84"/>
<stop offset="0.807292" stop-color="#0E6257"/>
</linearGradient>
</defs>
</svg>
