<svg width="80" height="80" viewBox="0 0 80 80" fill="none" xmlns="http://www.w3.org/2000/svg">
<path opacity="0.16" d="M20 33.3333V63.3333H60V59.9999L22.92 22.9199C21.0044 26.0551 19.9937 29.6592 20 33.3333Z" fill="#02142d"/>
<path d="M36.6719 73.332H43.3385" stroke="#02142d" stroke-width="6" stroke-linecap="round" stroke-linejoin="round"/>
<path d="M40.0052 13.3327C41.8462 13.3327 43.3385 11.8403 43.3385 9.99935C43.3385 8.1584 41.8462 6.66602 40.0052 6.66602C38.1643 6.66602 36.6719 8.1584 36.6719 9.99935C36.6719 11.8403 38.1643 13.3327 40.0052 13.3327Z" stroke="#02142d" stroke-width="6"/>
<path d="M33.3326 14.4731C36.3497 13.4058 39.5789 13.0781 42.7489 13.5176C45.9189 13.957 48.9372 15.1508 51.5502 16.9986C54.1632 18.8464 56.2946 21.2943 57.7654 24.1367C59.2362 26.979 60.0034 30.1328 60.0026 33.3331V41.1431M20.0026 63.3331V33.3331C20.0026 29.5198 21.0693 25.9531 22.9226 22.9198M20.0026 63.3331H60.0026M20.0026 63.3331H13.3359M60.0026 63.3331V59.9998M60.0026 63.3331H63.3359" stroke="#02142d" stroke-width="6" stroke-linecap="round" stroke-linejoin="round"/>
<path d="M13.3359 13.332L66.6693 66.6654" stroke="#02142d" stroke-width="6" stroke-linecap="round"/>
</svg>
