<svg width="24" height="25" viewBox="0 0 24 25" fill="none" xmlns="http://www.w3.org/2000/svg">
<path d="M22 9.49953V15.4995C22 17.9995 21.5 19.7495 20.38 20.8795L14 14.4995L21.73 6.76953C21.91 7.55953 22 8.45953 22 9.49953Z" stroke="#02142d" stroke-width="1.5" stroke-linecap="round" stroke-linejoin="round"/>
<path d="M21.73 6.77L6.26999 22.23C3.25999 21.54 2 19.46 2 15.5V9.5C2 4.5 4 2.5 9 2.5H15C18.96 2.5 21.04 3.76 21.73 6.77Z" stroke="#02142d" stroke-width="1.5" stroke-linecap="round" stroke-linejoin="round"/>
<path d="M20.38 20.88C19.25 22 17.5 22.5 15 22.5H9.00003C7.96003 22.5 7.06002 22.41 6.27002 22.23L14 14.5L20.38 20.88Z" stroke="#02142d" stroke-width="1.5" stroke-linecap="round" stroke-linejoin="round"/>
<path d="M6.23977 8.4807C6.91977 5.5507 11.3198 5.5507 11.9998 8.4807C12.3898 10.2007 11.3098 11.6607 10.3598 12.5607C9.66977 13.2207 8.57979 13.2207 7.87979 12.5607C6.92979 11.6607 5.83977 10.2007 6.23977 8.4807Z" stroke="#02142d" stroke-width="1.5"/>
<path d="M9.0946 9.19922H9.10359" stroke="#02142d" stroke-width="1.5" stroke-linecap="round" stroke-linejoin="round"/>
</svg>
