<svg width="80" height="80" viewBox="0 0 80 80" fill="none" xmlns="http://www.w3.org/2000/svg">
<rect x="27.5273" y="19.2773" width="3.25081" height="12.1905" fill="#c49073"/>
<rect x="48.6562" y="19.2773" width="3.25081" height="12.1905" fill="#c49073"/>
<rect x="27.5273" y="18.4648" width="3.25081" height="12.1905" fill="#1D524C"/>
<rect x="48.6562" y="18.4648" width="3.25081" height="12.1905" fill="#1D524C"/>
<rect x="27.5273" y="19.2773" width="3.25081" height="4.87621" fill="#c49073"/>
<rect x="48.6562" y="19.2773" width="3.25081" height="4.87621" fill="#c49073"/>
<path d="M27.5273 18.4648C27.5273 16.2206 29.3466 14.4013 31.5909 14.4013H47.8449C50.0891 14.4013 51.9084 16.2206 51.9084 18.4648H27.5273Z" fill="#c49073"/>
<path d="M8.01953 27.3773C8.01953 26.4937 8.73588 25.7773 9.61953 25.7773H69.8103C70.6939 25.7773 71.4103 26.4937 71.4103 27.3773V59.1997C71.4103 62.7344 68.5449 65.5997 65.0103 65.5997H14.4195C10.8849 65.5997 8.01953 62.7344 8.01953 59.1997V27.3773Z" fill="url(#paint0_linear_1999_64945)"/>
<path d="M7.75678 28.083C7.11784 27.0547 7.86636 25.7773 9.077 25.7773H70.3614C71.5721 25.7773 72.3206 27.0547 71.6816 28.083C69.4068 31.744 64.4741 38.8774 58.4114 42.8441C46.1944 50.8372 33.244 50.8372 21.0271 42.8441C14.9643 38.8774 10.0316 31.744 7.75678 28.083Z" fill="#219189"/>
<rect x="34.8398" y="46.9082" width="9.75242" height="4.06351" rx="2.03175" fill="#c49073"/>
<rect x="31.5938" y="32.2793" width="16.254" height="6.50161" rx="0.8" fill="#f9f2ef"/>
<defs>
<linearGradient id="paint0_linear_1999_64945" x1="39.7149" y1="25.7773" x2="39.7149" y2="65.5997" gradientUnits="userSpaceOnUse">
<stop stop-color="#1E8880"/>
<stop offset="1" stop-color="#0B4C43"/>
</linearGradient>
</defs>
</svg>
