<svg width="22" height="23" viewBox="0 0 22 23" fill="none" xmlns="http://www.w3.org/2000/svg">
<path d="M5.44444 17.0556V9.27778M21 7.05556V15.9444C21 17.4179 20.4147 18.8309 19.3728 19.8728C18.3309 20.9147 16.9179 21.5 15.4444 21.5H6.55556C5.08213 21.5 3.66905 20.9147 2.62718 19.8728C1.58532 18.8309 1 17.4179 1 15.9444V7.05556C1 5.58213 1.58532 4.16905 2.62718 3.12718C3.66905 2.08532 5.08213 1.5 6.55556 1.5H15.4444C16.9179 1.5 18.3309 2.08532 19.3728 3.12718C20.4147 4.16905 21 5.58213 21 7.05556Z" stroke="#02142d" stroke-width="1.5" stroke-linecap="round" stroke-linejoin="round"/>
<path d="M9.88976 17.0556V13.4445M9.88976 13.4445V9.2778M9.88976 13.4445C9.88976 9.2778 16.5564 9.2778 16.5564 13.4445V17.0556M5.44531 5.95558L5.45642 5.94336" stroke="#02142d" stroke-width="1.5" stroke-linecap="round" stroke-linejoin="round"/>
</svg>
